<?xml version="1.0" encoding="utf-8"?>
<!-- Generator: Adobe Illustrator 25.4.1, SVG Export Plug-In . SVG Version: 6.00 Build 0)  -->
<svg version="1.1" id="Layer_1" xmlns="http://www.w3.org/2000/svg" xmlns:xlink="http://www.w3.org/1999/xlink" x="0px" y="0px"
	 width="25px" height="25px" viewBox="0 0 25 25" style="enable-background:new 0 0 25 25;" xml:space="preserve">
<style type="text/css">
	.st0{fill:#4175F9;}
	.st1{fill:#7DA1FB;}
	.st2{fill:#F0F1F1;}
	.st3{fill:#4176F9;}
</style>
<g>
	<path class="st0" d="M12.8,25c-0.2,0-0.4,0-0.6,0c-0.2-0.1-0.3,0-0.5,0c-1.6,0-3.2-0.4-4.6-1.1c-1.2-0.6-2.3-1.3-3.3-2.3
		c-1.9-1.8-3.1-4-3.6-6.5C0,14.5,0,13.9,0,13.3c0-0.2,0-0.3,0-0.5c0-0.2,0-0.4,0-0.6c0.1-0.2,0-0.3,0-0.5c0-1.6,0.4-3.1,1.1-4.6
		c0.6-1.2,1.4-2.3,2.3-3.3c1.9-2,4.2-3.2,7-3.7C11.3,0,12.3,0,13.3,0c0.5,0,1.1,0,1.6,0.1c2.1,0.4,4,1.3,5.7,2.7
		c2,1.7,3.4,3.9,4.1,6.4c0.2,0.7,0.3,1.4,0.3,2.2c0,0.7,0,1.3,0,2c0,1.2-0.3,2.3-0.7,3.4c-0.5,1.4-1.3,2.8-2.3,3.9
		c-1,1.2-2.2,2.1-3.6,2.9c-1,0.5-2.1,0.9-3.2,1.2C14.6,25,13.9,25,13.3,25C13.1,25,13,25,12.8,25z"/>
	<path class="st1" d="M0,11.7C0,11.7,0,11.7,0,11.7c0.1,0.2,0.1,0.4,0,0.5C0,12,0,11.9,0,11.7z"/>
	<path class="st1" d="M0,13.4L0,13.4L0,13.4c0-0.2,0-0.4,0-0.5C0.1,13,0.1,13.2,0,13.4z"/>
	<path class="st2" d="M11.4,12.2c0.8,0.1,1.2,0.5,1.4,1.3c0.2,0.7,0.2,1.4,0,2c-0.3,1-1,1.5-2,1.7c-0.3,0.1-0.7,0.1-1,0.1
		c-1.5,0-3,0-4.5,0c-0.2,0-0.3-0.1-0.3-0.3c0-2.9,0-5.9,0-8.8c0-0.2,0.1-0.3,0.3-0.3c1.5,0,3,0,4.4,0c0.5,0,1,0.1,1.5,0.3
		c0.8,0.4,1.3,1,1.4,1.9c0,0.3,0,0.5,0,0.8C12.5,11.6,12.1,12,11.4,12.2z"/>
	<path class="st2" d="M17.8,14.4c-0.7,0-1.5,0-2.2,0c-0.2,0-0.2,0.1-0.2,0.2c0.1,0.8,0.5,1.3,1.3,1.4c0.4,0.1,0.8,0,1.2-0.1
		c0.3-0.1,0.6-0.3,0.7-0.7c0-0.1,0.1-0.2,0.2-0.2c0.4,0,0.9,0,1.3,0c0.1,0,0.2,0,0.2,0.2c-0.1,1.1-0.6,1.7-1.6,2.1
		c-1.1,0.4-2.3,0.4-3.3-0.1c-1-0.4-1.6-1.3-1.8-2.3c-0.2-1.4,0-2.6,1-3.6c0.5-0.5,1.1-0.8,1.8-0.9c0.7-0.1,1.5-0.1,2.2,0.2
		c0.9,0.3,1.4,1,1.7,1.9c0.2,0.6,0.2,1.1,0.2,1.7c0,0.2-0.1,0.2-0.2,0.2C19.3,14.4,18.5,14.4,17.8,14.4z"/>
	<path class="st2" d="M16.9,8.5c0.6,0,1.2,0,1.7,0c0.2,0,0.2,0,0.2,0.2c0,0.3,0,0.5,0,0.8c0,0.1,0,0.2-0.2,0.2c-1.2,0-2.4,0-3.6,0
		c-0.1,0-0.2-0.1-0.2-0.2c0-0.3,0-0.5,0-0.8c0-0.2,0.1-0.2,0.2-0.2C15.7,8.5,16.3,8.5,16.9,8.5z"/>
	<path class="st3" d="M8.7,13.2c0.4,0,0.8,0,1.2,0c0.5,0,0.9,0.3,1,0.8c0.1,0.3,0.1,0.6,0,0.9c-0.1,0.5-0.4,0.8-1,0.8
		c-0.8,0-1.7,0-2.5,0c-0.1,0-0.2,0-0.2-0.2c0-0.7,0-1.5,0-2.2c0-0.1,0.1-0.2,0.2-0.2C7.9,13.2,8.3,13.2,8.7,13.2z"/>
	<path class="st3" d="M8.7,11.7c-0.4,0-0.8,0-1.2,0c-0.1,0-0.2,0-0.2-0.2c0-0.6,0-1.2,0-1.8c0-0.1,0-0.2,0.2-0.2c0.9,0,1.7,0,2.6,0
		c0.3,0,0.6,0.3,0.6,0.7c0,0.3,0,0.6,0,0.8c-0.1,0.4-0.3,0.6-0.8,0.6C9.5,11.7,9.1,11.7,8.7,11.7C8.7,11.7,8.7,11.7,8.7,11.7z"/>
	<path class="st3" d="M16.9,13.2c-0.4,0-0.9,0-1.3,0c-0.2,0-0.2,0-0.2-0.2c0.4-1.2,1.4-1.4,2.2-1.1c0.4,0.2,0.8,0.7,0.8,1.2
		c0,0.1-0.1,0.1-0.2,0.1C17.8,13.2,17.3,13.2,16.9,13.2z"/>
</g>
</svg>
