<?xml version="1.0" encoding="utf-8"?>
<!-- Generator: Adobe Illustrator 25.4.1, SVG Export Plug-In . SVG Version: 6.00 Build 0)  -->
<svg version="1.1" id="Layer_1" xmlns="http://www.w3.org/2000/svg" xmlns:xlink="http://www.w3.org/1999/xlink" x="0px" y="0px"
	 width="25px" height="25px" viewBox="0 0 25 25" style="enable-background:new 0 0 25 25;" xml:space="preserve">
<style type="text/css">
	.st0{fill:#FBC232;}
	.st1{fill:#9A1CB3;}
	.st2{fill:#FCB13F;}
	.st3{fill:#9F1CAF;}
	.st4{fill:#FBB939;}
	.st5{fill:#FBBE36;}
	.st6{fill:#FBC62F;}
	.st7{fill:#971CB5;}
	.st8{fill:#941CB7;}
	.st9{fill:#901CB9;}
	.st10{fill:#FBB53C;}
	.st11{fill:#FCD268;}
	.st12{fill:#A12FBA;}
	.st13{fill:#FCC761;}
	.st14{fill:#CE8FD8;}
	.st15{fill:#C281D8;}
	.st16{fill:#CF9EE1;}
	.st17{fill:#FACC2A;}
	.st18{fill:#8D1CBB;}
	.st19{fill:#FAD127;}
	.st20{fill:#851CC0;}
	.st21{fill:#891CBE;}
	.st22{fill:#FAD524;}
	.st23{fill:#801CC3;}
	.st24{fill:#FAC92D;}
	.st25{fill:#A11CAE;}
	.st26{fill:#F9DD1E;}
	.st27{fill:#FAD921;}
	.st28{fill:#7D1CC5;}
	.st29{fill:#FDA14C;}
	.st30{fill:#AE1CA6;}
	.st31{fill:#771CC9;}
	.st32{fill:#C81C96;}
	.st33{fill:#FCA747;}
	.st34{fill:#AA1CA9;}
	.st35{fill:#C31C99;}
	.st36{fill:#FCAE42;}
	.st37{fill:#D01C91;}
	.st38{fill:#B21CA4;}
	.st39{fill:#FE6F69;}
	.st40{fill:#B81CA0;}
	.st41{fill:#CB1C94;}
	.st42{fill:#BC1C9D;}
	.st43{fill:#FE8B5D;}
	.st44{fill:#7A1CC7;}
	.st45{fill:#FD9D4F;}
	.st46{fill:#A41CAC;}
	.st47{fill:#F93284;}
	.st48{fill:#FD9555;}
	.st49{fill:#FE5E70;}
	.st50{fill:#A71CAB;}
	.st51{fill:#BF1C9B;}
	.st52{fill:#FE8560;}
	.st53{fill:#D41C8E;}
	.st54{fill:#FD9952;}
	.st55{fill:#FE696C;}
	.st56{fill:#FE7D64;}
	.st57{fill:#B51CA1;}
	.st58{fill:#F43288;}
	.st59{fill:#FE656E;}
	.st60{fill:#FE7467;}
	.st61{fill:#FD3282;}
	.st62{fill:#FE8163;}
	.st63{fill:#E11C86;}
	.st64{fill:#D71C8C;}
	.st65{fill:#F9E11B;}
	.st66{fill:#FE7966;}
	.st67{fill:#FE5573;}
	.st68{fill:#DA1C8A;}
	.st69{fill:#731CCC;}
	.st70{fill:#FD9158;}
	.st71{fill:#FE8E5A;}
	.st72{fill:#FE4B78;}
	.st73{fill:#E51C83;}
	.st74{fill:#FE5076;}
	.st75{fill:#E71C82;}
	.st76{fill:#DE1C88;}
	.st77{fill:#FE437A;}
	.st78{fill:#FE397F;}
	.st79{fill:#FE3E7C;}
	.st80{fill:#6E1CCF;}
	.st81{fill:#751DCB;}
	.st82{fill:#FE4779;}
	.st83{fill:#711DCD;}
	.st84{fill:#FE5A72;}
	.st85{fill:#EC1C7F;}
	.st86{fill:#FE3680;}
	.st87{fill:#FCAA44;}
	.st88{fill:#FCAA45;}
	.st89{fill:#F01C7D;}
	.st90{fill:#C01C9B;}
	.st91{fill:#FCA846;}
	.st92{fill:#E01C87;}
	.st93{fill:#CF1C91;}
	.st94{fill:#FD3382;}
	.st95{fill:#FCA24B;}
	.st96{fill:#C51C98;}
	.st97{fill:#A71CAA;}
	.st98{fill:#FE8660;}
	.st99{fill:#FE8262;}
	.st100{fill:#B51CA2;}
	.st101{fill:#FE7567;}
	.st102{fill:#FE3A7E;}
	.st103{fill:#FCA549;}
	.st104{fill:#E51C84;}
	.st105{fill:#FE5474;}
	.st106{fill:#FE6A6B;}
	.st107{fill:#FE666D;}
	.st108{fill:#FE4F76;}
	.st109{fill:#FE5972;}
	.st110{fill:#FE646E;}
	.st111{fill:#F53287;}
	.st112{fill:#FE4679;}
	.st113{fill:#FE437B;}
	.st114{fill:#FE3F7C;}
	.st115{fill:#EB1C80;}
	.st116{fill:#EF1C7D;}
	.st117{fill:#FEFEFE;}
	.st118{fill:#EF328B;}
	.st119{fill:#EC328D;}
	.st120{fill:#EC328C;}
	.st121{fill:#F33288;}
	.st122{fill:#D61C8D;}
	.st123{fill:#FE7C65;}
	.st124{fill:#D21C8F;}
	.st125{fill:#CE1C92;}
	.st126{fill:#C71C96;}
	.st127{fill:#CA1C94;}
	.st128{fill:#BE1C9C;}
	.st129{fill:#DB1C8A;}
	.st130{fill:#BA1C9E;}
	.st131{fill:#F0328B;}
	.st132{fill:#E73290;}
	.st133{fill:#F43287;}
	.st134{fill:#FE8760;}
	.st135{fill:#FD9059;}
	.st136{fill:#EB328D;}
	.st137{fill:#FE417B;}
	.st138{fill:#FE4879;}
	.st139{fill:#FD9456;}
	.st140{fill:#B61CA1;}
	.st141{fill:#FE4D77;}
	.st142{fill:#FE4979;}
	.st143{fill:#FE626F;}
	.st144{fill:#FE3581;}
	.st145{fill:#FD9954;}
	.st146{fill:#F93285;}
	.st147{fill:#FD3482;}
	.st148{fill:#FE3A7F;}
	.st149{fill:#FE3B7E;}
	.st150{fill:#FE5176;}
	.st151{fill:#F0328A;}
	.st152{fill:#FE427B;}
	.st153{fill:#FE397E;}
	.st154{fill:#FE3E7D;}
	.st155{fill:#FE5575;}
	.st156{fill:#E8338F;}
</style>
<g>
	<path class="st0" d="M11.5,0.1c0.1,0,0.1,0,0.2,0c0.1,0,0.2,0,0.3,0c0.1,0,0.1,0,0.2,0c0,0.1,0,0.1-0.1,0.2c0,0.1-0.1,0.1-0.2,0.2
		C8.1,4.3,4.3,8.1,0.4,12c-0.1,0.1-0.1,0.2-0.2,0.2c-0.1,0.1-0.2,0-0.2-0.1c0-0.1,0-0.2,0-0.3c0-0.1,0-0.2,0-0.2
		c0.1-0.1,0.2-0.2,0.3-0.3c3.7-3.7,7.3-7.3,11-11C11.4,0.2,11.5,0.1,11.5,0.1z"/>
	<path class="st1" d="M25,12.2c0,0.1,0,0.2,0,0.2c-0.1,0.1-0.2,0.2-0.3,0.3c-4,4-8,8-12,12c-0.1,0.1-0.2,0.2-0.3,0.3
		c-0.1,0-0.2,0-0.3,0c0,0-0.1,0-0.1,0c-0.1-0.1,0-0.2,0-0.2c0.1-0.1,0.1-0.1,0.2-0.2c4.2-4.2,8.3-8.3,12.5-12.5c0,0,0,0,0.1-0.1
		c0.1-0.1,0.2-0.2,0.3-0.2C25.1,11.9,24.9,12.1,25,12.2z"/>
	<path class="st2" d="M0.1,13.6C0,13.6,0,13.6,0.1,13.6C0,13.5,0,13.5,0,13.4c0.1-0.1,0.2-0.2,0.3-0.3C4.6,8.8,8.8,4.6,13.1,0.3
		c0.1-0.1,0.2-0.2,0.3-0.3c0.1,0,0.1,0,0.2,0c0.2,0.1,0.2,0.1,0.1,0.2c-0.1,0.1-0.1,0.1-0.2,0.2c-1.9,1.9-3.8,3.8-5.7,5.7
		C7.7,6.3,7.6,6.4,7.5,6.6C7.2,6.9,6.9,7.2,6.6,7.5C6.4,7.6,6.3,7.7,6.2,7.9c-1.9,1.9-3.8,3.8-5.7,5.7c-0.1,0.1-0.1,0.1-0.2,0.2
		C0.1,13.8,0.1,13.8,0.1,13.6z"/>
	<path class="st3" d="M25,12.2c-0.1-0.1,0-0.2-0.1-0.3c-0.1,0-0.2,0.1-0.3,0.2c-4.2,4.2-8.4,8.4-12.6,12.6c-0.1,0.1-0.2,0.2-0.2,0.3
		c0,0-0.1,0-0.1,0c0,0-0.1,0-0.1,0c-0.1,0-0.1,0-0.2,0c0,0,0,0,0-0.1c-0.1-0.1,0-0.1,0-0.2c0-0.1,0.1-0.1,0.2-0.2
		c4.3-4.3,8.6-8.6,13-13c0.1-0.1,0.2-0.3,0.3-0.2C25,11.7,25,11.9,25,12.2z"/>
	<path class="st4" d="M12.6,0c0.1,0,0.1,0,0.2,0c0.1,0,0.2,0,0.3,0.1c0,0.1-0.1,0.2-0.2,0.3c-1.5,1.5-3,3-4.5,4.5
		c-2.7,2.7-5.3,5.3-8,8C0.3,13,0.2,13.2,0,13.1c0-0.1,0-0.2,0-0.2c0-0.1,0-0.1,0-0.2c0.1-0.1,0.2-0.2,0.3-0.2c4-4,8.1-8.1,12.1-12.1
		C12.5,0.2,12.6,0.1,12.6,0z"/>
	<path class="st5" d="M12.6,0c0.1,0.1-0.1,0.2-0.1,0.2C8.4,4.3,4.3,8.4,0.2,12.6c-0.1,0.1-0.1,0.2-0.2,0.1c0-0.2,0-0.4,0-0.5
		c0,0,0,0,0,0c0,0.1,0,0.1,0.1,0C0.2,12.1,0.3,12,0.3,12C4.2,8.1,8.1,4.2,12,0.3c0.1-0.1,0.2-0.1,0.2-0.3c-0.2,0-0.3,0-0.5,0
		C12,0,12.3,0,12.6,0z"/>
	<path class="st6" d="M11.5,0.1c0,0.1-0.1,0.2-0.1,0.2C7.7,4,4,7.7,0.3,11.4c-0.1,0.1-0.1,0.2-0.3,0.1c0,0,0-0.1,0-0.1
		c0,0,0,0,0.1-0.1c0-0.1,0-0.2,0-0.3c0-0.1,0-0.3,0-0.4c0.1,0.1,0.1,0.1,0.2,0c0,0,0.1-0.1,0.1-0.1C3.8,7.2,7.2,3.8,10.6,0.4
		c0.1-0.1,0.2-0.1,0.1-0.3c0.1-0.1,0.3,0,0.4,0c0.1,0,0.2,0,0.3,0C11.4,0.1,11.5,0.1,11.5,0.1z"/>
	<path class="st7" d="M12.4,25c0-0.1,0.1-0.2,0.1-0.2c4.1-4.1,8.1-8.1,12.2-12.2c0.1-0.1,0.1-0.2,0.3-0.1c0,0.3,0,0.6,0,0.9
		c0,0-0.1-0.1-0.1-0.1c0-0.1,0-0.2,0-0.3c-0.1,0-0.1,0.1-0.2,0.2c-3.9,3.9-7.7,7.7-11.6,11.6c-0.1,0.1-0.2,0.2-0.2,0.3
		C12.7,25,12.5,25,12.4,25C12.3,25,12.3,25,12.4,25C12.3,25,12.3,25,12.4,25z"/>
	<path class="st8" d="M12.8,25c-0.1-0.1-0.1-0.1,0-0.2c0,0,0.1-0.1,0.1-0.1c3.9-3.9,7.8-7.8,11.7-11.7c0,0,0,0,0,0
		c0.1-0.1,0.1-0.2,0.2-0.1c0.1,0,0,0.2,0,0.3c0,0,0,0.1,0,0.1c-0.1,0.1-0.2,0.2-0.3,0.3c-3.7,3.7-7.5,7.5-11.2,11.2
		c-0.1,0.1-0.2,0.2-0.3,0.4C13,25,12.9,25,12.8,25z"/>
	<path class="st9" d="M13.1,25c0-0.1,0.1-0.2,0.2-0.3c3.8-3.8,7.6-7.6,11.4-11.4c0.1-0.1,0.2-0.1,0.3-0.2c0,0.1,0,0.1,0,0.2
		c0,0.1,0,0.2,0,0.3c-0.2,0.1-0.3,0.3-0.4,0.4c-3.5,3.5-7.1,7.1-10.6,10.6c-0.1,0.1-0.2,0.3-0.4,0.4c0,0,0,0,0,0c0,0-0.1,0-0.1,0
		c0,0-0.1,0-0.1,0C13.2,25,13.2,25,13.1,25C13.2,25,13.2,25,13.1,25z"/>
	<path class="st10" d="M0.1,13.1c0.1,0,0.2-0.1,0.2-0.1C4.5,8.7,8.7,4.5,12.9,0.3c0.2-0.2,0.2-0.2-0.1-0.3c0.2,0,0.4,0,0.6,0
		c-0.1,0.1-0.1,0.1-0.2,0.2c-4.3,4.3-8.7,8.7-13,13c-0.1,0.1-0.1,0.2-0.3,0.2C0,13.3,0,13.2,0.1,13.1C0,13.1,0,13.1,0.1,13.1z"/>
	<path class="st11" d="M0,12.1C0,12.1,0,12.1,0,12.1c0-0.1,0-0.2,0-0.3C0.1,11.9,0,12,0,12.1z"/>
	<path class="st12" d="M12.4,25C12.4,25,12.4,25,12.4,25c-0.1,0-0.2,0-0.3,0C12.1,24.9,12.2,25,12.4,25z"/>
	<path class="st13" d="M0.1,13.1C0,13.1,0,13.1,0.1,13.1C0,13,0,12.9,0,12.8C0.1,12.9,0,13,0.1,13.1z"/>
	<path class="st14" d="M11.7,25C11.7,24.9,11.7,24.9,11.7,25C11.7,25,11.7,25,11.7,25z"/>
	<path class="st15" d="M13.2,25C13.2,25,13.2,25,13.2,25c0.1,0,0.1,0,0.1,0C13.3,25,13.3,25,13.2,25C13.2,25,13.2,25,13.2,25z"/>
	<path class="st16" d="M13.3,25C13.3,25,13.3,25,13.3,25C13.3,25,13.4,25,13.3,25C13.3,25,13.3,25,13.3,25z"/>
	<path class="st17" d="M9.7,0.3c0.3-0.1,0.5-0.1,0.8-0.2c0.1,0,0.1,0.1,0.1,0.1c0,0.1-0.1,0.2-0.2,0.2c-3.3,3.3-6.5,6.5-9.8,9.8
		c-0.1,0.1-0.1,0.2-0.2,0.2c-0.1,0-0.2,0-0.1-0.1c0-0.3,0.1-0.5,0.1-0.7c0.1,0,0.2-0.1,0.2-0.1c3-3,6-6,8.9-8.9
		C9.6,0.5,9.7,0.5,9.7,0.3z"/>
	<path class="st18" d="M13.5,25c0-0.1,0.1-0.2,0.2-0.3c3.7-3.7,7.3-7.3,11-11c0.1-0.1,0.1-0.2,0.3-0.1c0,0.2,0,0.5-0.1,0.7
		c-0.1,0-0.1,0-0.2,0c0,0-0.1,0.1-0.1,0.1c-3.4,3.4-6.8,6.8-10.1,10.1c-0.1,0.1-0.2,0.1-0.1,0.3c-0.1,0.1-0.3,0-0.4,0
		C13.8,24.9,13.7,24.9,13.5,25C13.6,24.9,13.6,25,13.5,25z"/>
	<path class="st19" d="M9.7,0.3c0.1,0,0.1,0,0.1,0.1c0,0.1-0.1,0.1-0.1,0.1c-3,3-6,6-9,9c0,0-0.1,0.1-0.1,0.1
		c-0.1,0.1-0.1,0-0.1-0.1c0-0.3,0.1-0.5,0.2-0.7c0.1-0.1,0.3-0.2,0.4-0.3C3.5,6,6,3.5,8.6,0.9c0.1-0.1,0.2-0.2,0.3-0.4
		C9.2,0.4,9.4,0.4,9.7,0.3z"/>
	<path class="st20" d="M24.8,14.9c0,0.2,0,0.3-0.1,0.5c-1.1,1.1-2.1,2.1-3.2,3.2c-2,2-4,4-6,6c0,0-0.1,0.1-0.1,0.1
		c-0.2,0.1-0.4,0.1-0.6,0.1c-0.1-0.1,0-0.2,0-0.2c0.1-0.1,0.1-0.1,0.2-0.2c3.2-3.2,6.3-6.3,9.5-9.5c0.1-0.1,0.1-0.1,0.2-0.2
		c0,0,0.1-0.1,0.2,0C24.8,14.7,24.8,14.8,24.8,14.9z"/>
	<path class="st21" d="M24.8,14.9c0-0.1,0-0.2-0.2-0.1c0,0-0.1,0.1-0.1,0.1c-3.2,3.2-6.4,6.4-9.6,9.6c-0.1,0.1-0.2,0.1-0.2,0.3
		c-0.1,0-0.3,0.1-0.4,0.1c-0.1,0-0.2,0-0.1-0.1c0,0,0.1-0.1,0.1-0.1c3.4-3.4,6.9-6.9,10.3-10.3c0,0,0.1-0.1,0.1-0.1
		c0.1-0.1,0.1,0,0.1,0.1C24.9,14.5,24.8,14.7,24.8,14.9z"/>
	<path class="st22" d="M8.9,0.5c0,0.1-0.1,0.2-0.2,0.3C6.1,3.5,3.5,6.1,0.8,8.8C0.7,8.9,0.7,8.9,0.5,8.9c0.1-0.3,0.2-0.6,0.3-0.9
		C0.9,8,1,7.9,1.1,7.8c2.3-2.2,4.5-4.5,6.7-6.7C7.9,1,8,0.9,8.1,0.8C8.3,0.7,8.6,0.6,8.9,0.5z"/>
	<path class="st23" d="M15.3,24.7c0-0.1,0.1-0.2,0.1-0.2c3-3,6-6,9-9c0.1-0.1,0.1-0.1,0.2-0.1c0,0.3-0.1,0.5-0.2,0.7
		c-0.1,0.1-0.2,0.2-0.3,0.2c-2.6,2.6-5.2,5.2-7.8,7.8c-0.1,0.1-0.2,0.2-0.2,0.3C15.8,24.6,15.6,24.6,15.3,24.7z"/>
	<path class="st24" d="M0.2,10.4C0.2,10.5,0.2,10.5,0.2,10.4c0.2,0,0.2,0,0.3-0.1C3.7,7,7,3.8,10.3,0.5c0.1-0.1,0.2-0.1,0.1-0.3
		c0.1-0.1,0.2,0,0.3,0c0.1,0,0.1,0,0.2,0c0,0.1-0.1,0.1-0.1,0.2C9.6,1.5,8.5,2.7,7.3,3.9C5,6.2,2.7,8.5,0.4,10.8
		c-0.1,0.1-0.1,0.2-0.2,0.1c-0.1,0,0-0.1,0-0.2C0.1,10.6,0.1,10.5,0.2,10.4z"/>
	<path class="st25" d="M24.9,11.4c-0.1,0-0.2,0.1-0.2,0.1C20.3,16,16,20.3,11.6,24.7c-0.1,0.1-0.1,0.1-0.1,0.2c-0.1,0-0.1,0-0.2,0
		c-0.1-0.1,0-0.2,0-0.2c0.1-0.1,0.1-0.1,0.2-0.2c1.8-1.8,3.7-3.7,5.5-5.5c0.1-0.1,0.3-0.3,0.4-0.5c0.4-0.4,0.8-0.8,1.2-1.2
		c0.1,0,0.2-0.2,0.3-0.2c1.9-1.9,3.8-3.8,5.7-5.7c0.1-0.1,0.2-0.2,0.3-0.2c0.1,0,0.2,0,0.2,0.1C24.9,11.3,24.9,11.4,24.9,11.4z"/>
	<path class="st26" d="M5.8,2c0.4-0.3,0.9-0.6,1.4-0.8c0.1,0,0.1,0,0.1,0.1c0,0.1-0.1,0.2-0.2,0.2C5.2,3.4,3.4,5.2,1.5,7.1
		C1.5,7.1,1.4,7.2,1.3,7.2c-0.1,0-0.1,0-0.1-0.1c0.2-0.5,0.5-1,0.8-1.4c0.1-0.1,0.3-0.2,0.4-0.3c1-1,2-2,3-3C5.6,2.3,5.7,2.1,5.8,2z
		"/>
	<path class="st27" d="M1.2,7.1C1.2,7.2,1.3,7.2,1.2,7.1c0.2,0,0.2,0,0.3-0.1C3.3,5.2,5.2,3.3,7,1.5c0.1-0.1,0.1-0.1,0.2-0.2
		c0-0.1,0-0.1-0.1-0.1c0.3-0.2,0.6-0.3,0.9-0.4C8.2,0.9,8,1,8,1C7.5,1.5,7.1,2,6.6,2.4C4.8,4.3,2.9,6.1,1.1,7.9C1,8,1,8.2,0.8,8.1
		C0.9,7.7,1.1,7.4,1.2,7.1z"/>
	<path class="st28" d="M16.1,24.5c-0.1-0.1,0.1-0.2,0.1-0.3c0.8-0.8,1.6-1.6,2.4-2.4c1.9-1.9,3.7-3.7,5.6-5.6
		c0.1-0.1,0.1-0.2,0.3-0.2c0,0.2-0.1,0.3-0.2,0.5c-2.4,2.4-4.8,4.8-7.2,7.2c-0.2,0.2-0.4,0.4-0.6,0.5C16.4,24.4,16.2,24.4,16.1,24.5
		z"/>
	<path class="st29" d="M14.7,0.2c0.1,0,0.3,0.1,0.4,0.1c0.1,0.1,0,0.2-0.1,0.3c-0.3,0.3-0.6,0.6-0.9,0.9c-1.4,1.4-2.8,2.8-4.2,4.2
		C9.8,5.8,9.8,5.9,9.6,6C9.4,6,9.3,6,9.1,6C9,6,9,5.9,9.1,5.9c0.2-0.1,0.3-0.3,0.5-0.5c1.6-1.6,3.2-3.2,4.8-4.8
		C14.5,0.5,14.6,0.4,14.7,0.2z"/>
	<path class="st30" d="M24.7,9.8c0,0.2,0.1,0.3,0.1,0.5c-0.1,0.1-0.2,0.2-0.3,0.3c-1.7,1.7-3.3,3.3-5,5c-0.1,0.1-0.1,0.1-0.2,0.2
		c-0.1,0-0.1,0.1-0.2,0c0-0.1,0-0.3,0-0.4c0.1-0.1,0.2-0.2,0.4-0.4c1.6-1.6,3.3-3.3,4.9-4.9C24.4,9.9,24.5,9.7,24.7,9.8z"/>
	<path class="st31" d="M17.7,23.8c-0.2,0.1-0.4,0.2-0.6,0.3c-0.1-0.1,0-0.2,0-0.2c0-0.1,0.1-0.1,0.1-0.2c2.2-2.2,4.3-4.3,6.5-6.5
		c0.1-0.1,0.1-0.1,0.2-0.2c0.1,0,0.1,0,0.1,0.1c-0.1,0.2-0.1,0.4-0.2,0.6c-0.1,0.1-0.2,0.2-0.3,0.3c-1.9,1.9-3.8,3.8-5.7,5.7
		C17.8,23.7,17.8,23.8,17.7,23.8z"/>
	<path class="st32" d="M23.9,7.5c0.1,0.1,0.1,0.2,0.1,0.3c0,0.1,0,0.1-0.1,0.1c-1.5,1.5-3,3-4.6,4.5c-0.1,0.1-0.1,0.1-0.2,0.2
		c-0.1,0-0.1,0.1-0.2,0c0-0.1,0-0.3,0-0.4c0-0.1,0.1-0.2,0.2-0.2c1.4-1.4,2.9-2.9,4.3-4.3C23.6,7.6,23.7,7.5,23.9,7.5z"/>
	<path class="st33" d="M14.7,0.2c0,0.1-0.1,0.2-0.2,0.3c-1.7,1.7-3.4,3.5-5.2,5.2C9.3,5.8,9.2,5.9,9,5.9C9,6.1,8.8,6.1,8.7,6
		c-0.1-0.1,0-0.1,0-0.2c0-0.1,0.1-0.1,0.2-0.2c1.8-1.8,3.6-3.6,5.3-5.3c0.1-0.1,0.1-0.1,0.2-0.1C14.5,0.1,14.6,0.2,14.7,0.2z"/>
	<path class="st34" d="M19.1,15.7c0.1,0,0.2-0.1,0.3-0.2c1.7-1.7,3.5-3.5,5.2-5.2c0.1-0.1,0.1-0.2,0.3-0.1c0,0.1,0,0.2,0,0.3
		c0,0.1-0.1,0.1-0.1,0.2c-1.8,1.8-3.6,3.6-5.3,5.3c-0.1,0.1-0.1,0.1-0.2,0.2c-0.1,0-0.1,0.1-0.2,0C19,16,18.9,15.9,19.1,15.7z"/>
	<path class="st35" d="M19.1,12.7c0.1,0,0.2-0.1,0.2-0.2c1.4-1.4,2.9-2.9,4.3-4.3c0.1-0.1,0.3-0.2,0.4-0.4c0.1,0.1,0.1,0.3,0.2,0.4
		c-1.1,1.1-2.1,2.1-3.2,3.2c-0.6,0.6-1.1,1.1-1.7,1.7c-0.1,0.1-0.2,0.2-0.3,0.1C19,13,19,12.8,19.1,12.7z"/>
	<path class="st36" d="M7.5,6.6c0.1-0.1,0.2-0.3,0.3-0.4c2-1.9,3.9-3.9,5.8-5.8c0.1-0.1,0.2-0.2,0-0.3c0.1,0,0.3,0,0.4,0
		c0.1,0.1,0,0.2,0,0.2c-0.1,0.1-0.1,0.1-0.2,0.2c-1.8,1.8-3.6,3.6-5.4,5.4C8.4,6,8.4,6,8.3,6.1C8,6.3,7.8,6.5,7.5,6.6z"/>
	<path class="st37" d="M23.6,6.7c0.1,0.1,0.1,0.2,0.1,0.3c0.1,0.2-0.1,0.2-0.2,0.3c-1.2,1.2-2.5,2.5-3.7,3.7
		c-0.2,0.2-0.4,0.4-0.6,0.5c-0.1,0.1-0.2,0.2-0.3,0c0-0.2,0-0.3,0-0.5c0.1-0.1,0.2-0.2,0.3-0.3c1.3-1.3,2.6-2.6,3.9-3.9
		C23.4,6.8,23.4,6.7,23.6,6.7z"/>
	<path class="st38" d="M24.7,9.8c-0.1,0-0.2,0.1-0.3,0.2c-1.7,1.7-3.4,3.4-5.1,5.1c-0.1,0.1-0.1,0.2-0.2,0.2C19,15.1,19,15,19,14.9
		c0.1-0.2,0.2-0.2,0.4-0.4c1.6-1.6,3.3-3.3,4.9-4.9c0.1-0.1,0.1-0.2,0.3-0.2C24.6,9.5,24.7,9.7,24.7,9.8z"/>
	<path class="st39" d="M18.2,1.4c0.1,0,0.3,0.1,0.4,0.2c-0.1,0.1-0.2,0.2-0.3,0.3c-1.3,1.3-2.6,2.6-3.9,3.9
		c-0.1,0.1-0.1,0.2-0.2,0.2c-0.1,0-0.3,0-0.4,0c-0.1-0.1,0-0.1,0-0.2c0-0.1,0.1-0.1,0.2-0.2c1.3-1.3,2.6-2.6,4-4
		C18,1.5,18.1,1.4,18.2,1.4z"/>
	<path class="st40" d="M24.5,8.8c0,0.1,0.1,0.2,0.1,0.3c-0.2,0.1-0.3,0.3-0.5,0.4c-1.5,1.5-3.1,3.1-4.6,4.6
		c-0.1,0.1-0.1,0.1-0.2,0.2c-0.1,0-0.1,0.1-0.2,0c0-0.1,0-0.2,0-0.4c0.1-0.1,0.2-0.2,0.4-0.4c1.6-1.6,3.1-3.1,4.7-4.7
		C24.2,8.9,24.3,8.7,24.5,8.8z"/>
	<path class="st41" d="M19.1,11.7c0.1,0,0.2-0.1,0.2-0.1c1.4-1.4,2.9-2.9,4.3-4.3c0.1-0.1,0.1-0.1,0.1-0.2c0.1,0.1,0.2,0.3,0.2,0.4
		c-0.2,0.1-0.3,0.2-0.4,0.3c-1.4,1.4-2.8,2.8-4.2,4.2c-0.1,0.1-0.1,0.1-0.2,0.2C19,12,19,11.9,19.1,11.7z"/>
	<path class="st42" d="M24.5,8.8c-0.1,0-0.2,0.1-0.3,0.2c-1.6,1.6-3.2,3.2-4.8,4.8c-0.1,0.1-0.1,0.2-0.2,0.2
		C19,13.9,19,13.8,19,13.6c0.1-0.2,0.2-0.2,0.3-0.3c1.5-1.5,3.1-3.1,4.6-4.6c0.1-0.1,0.1-0.1,0.2-0.2c0.1-0.1,0.1-0.1,0.2,0
		C24.4,8.6,24.4,8.7,24.5,8.8z"/>
	<path class="st43" d="M16.5,0.6c0.2,0,0.3,0.1,0.5,0.2c-0.5,0.5-1.1,1.1-1.6,1.6c-1.2,1.2-2.3,2.3-3.5,3.5c0,0,0,0,0,0
		c-0.1,0-0.2,0-0.4,0c-0.1-0.1-0.1-0.1,0-0.2c0.1-0.1,0.1-0.1,0.2-0.2c1.5-1.5,3-3,4.6-4.6C16.3,0.9,16.4,0.8,16.5,0.6z"/>
	<path class="st44" d="M24.1,17.2C24.1,17.1,24,17.1,24.1,17.2c-0.2,0-0.2,0-0.3,0.1c-2.2,2.2-4.3,4.3-6.5,6.5
		c-0.1,0.1-0.2,0.2-0.2,0.3c-0.2,0.1-0.4,0.1-0.5,0.2c0-0.1,0.1-0.2,0.1-0.2c2.5-2.5,4.9-4.9,7.4-7.4c0.1-0.1,0.1-0.1,0.2-0.1
		C24.2,16.8,24.2,17,24.1,17.2z"/>
	<path class="st45" d="M9.7,5.9c0.1-0.1,0.1-0.1,0.2-0.2C11.6,4,13.3,2.3,15,0.5c0.1-0.1,0.2-0.1,0.2-0.2c0.1,0,0.2,0,0.2,0.1
		c0.1,0.1,0.1,0.1,0,0.2c-0.1,0.1-0.1,0.1-0.2,0.2C13.7,2.4,12,4,10.4,5.6c-0.1,0.1-0.2,0.3-0.3,0.3C9.9,6,9.8,6,9.7,5.9z"/>
	<path class="st46" d="M24.9,11.3c0-0.1-0.1-0.1-0.2,0c-0.1,0.1-0.1,0.1-0.2,0.2c-1.9,1.9-3.9,3.9-5.8,5.8c-0.1,0.1-0.1,0.2-0.3,0.2
		c0-0.3,0.2-0.4,0.3-0.6c0.1-0.1,0.3-0.2,0.4-0.4c1.8-1.8,3.5-3.5,5.3-5.3c0.1-0.1,0.1-0.1,0.2-0.2c0.1-0.1,0.1-0.1,0.2,0
		C24.9,11.1,24.9,11.2,24.9,11.3z"/>
	<path class="st47" d="M21.5,3.9c0.1,0.1,0.2,0.2,0.3,0.3c0,0.1-0.1,0.2-0.1,0.2c-1,1-2,2-3,3c-0.1,0.1-0.2,0.2-0.3,0.2
		c-0.1-0.1-0.2-0.2-0.3-0.4c0-0.1,0.1-0.1,0.2-0.2c1-1,2-2,2.9-2.9C21.4,4,21.4,3.9,21.5,3.9z"/>
	<path class="st48" d="M15.8,0.5c0.1,0,0.2,0,0.3,0.1c0,0.1-0.1,0.2-0.2,0.3c-1.6,1.6-3.2,3.2-4.8,4.8c-0.1,0.1-0.2,0.3-0.4,0.4
		c-0.1,0-0.2,0-0.3,0c-0.1-0.1-0.1-0.1,0-0.2c0.1-0.1,0.1-0.1,0.2-0.2c1.6-1.6,3.2-3.2,4.9-4.9C15.6,0.6,15.7,0.5,15.8,0.5z"/>
	<path class="st49" d="M19.1,1.9c0.1,0,0.2,0.1,0.3,0.2c0,0.1-0.1,0.2-0.2,0.3c-1.1,1.1-2.2,2.2-3.2,3.2c-0.1,0.1-0.2,0.3-0.3,0.3
		c-0.2,0-0.3,0-0.5,0c-0.1-0.1-0.1-0.1,0-0.2c0-0.1,0.1-0.1,0.2-0.2c1.2-1.2,2.3-2.3,3.5-3.4C18.9,2,19,1.9,19.1,1.9z"/>
	<path class="st50" d="M24.9,10.9c-0.1-0.1-0.2,0-0.3,0.1c-0.7,0.7-1.3,1.3-2,2c-1.2,1.2-2.4,2.4-3.5,3.5c-0.1,0.1-0.2,0.2-0.3,0.2
		c-0.1-0.2,0-0.4,0.1-0.5c0.1-0.1,0.2-0.1,0.3-0.2c1.8-1.8,3.5-3.5,5.3-5.3c0.1-0.1,0.1-0.2,0.2-0.2C24.9,10.7,24.9,10.8,24.9,10.9z
		"/>
	<path class="st51" d="M24.4,8.5c-0.1-0.1-0.2,0-0.3,0.1c-1.1,1.1-2.1,2.1-3.2,3.2c-0.5,0.5-1,1-1.6,1.5c-0.1,0.1-0.1,0.2-0.2,0.2
		c-0.1-0.1-0.1-0.3,0-0.4c0.1,0,0.2-0.1,0.2-0.2c1.5-1.5,3.1-3.1,4.6-4.6c0.1-0.1,0.1-0.2,0.3-0.2C24.3,8.3,24.3,8.4,24.4,8.5z"/>
	<path class="st52" d="M11.9,5.9c0-0.1,0.1-0.2,0.1-0.2c1.6-1.6,3.1-3.1,4.7-4.7c0.1-0.1,0.1-0.1,0.2-0.1c0.1,0,0.2,0,0.2,0.1
		c0,0.1-0.1,0.2-0.2,0.3c-1.5,1.5-2.9,2.9-4.4,4.4c-0.1,0.1-0.2,0.3-0.4,0.4C12.1,6,12,6,11.9,5.9z"/>
	<path class="st53" d="M23.6,6.7c-0.1,0.1-0.1,0.1-0.2,0.2c-1.3,1.3-2.7,2.7-4,4c-0.1,0.1-0.1,0.2-0.2,0.2C19,11,19,10.9,19,10.7
		c0-0.1,0.2-0.2,0.2-0.3c1.4-1.4,2.7-2.7,4.1-4.1c0,0,0,0,0,0C23.5,6.5,23.5,6.6,23.6,6.7z"/>
	<path class="st54" d="M15.8,0.5c-0.1,0.1-0.2,0.2-0.2,0.3c-1.6,1.6-3.3,3.3-4.9,4.9c-0.1,0.1-0.2,0.1-0.2,0.2
		c-0.1,0.1-0.2,0.1-0.3,0c0-0.1,0.1-0.2,0.2-0.2c1.7-1.7,3.4-3.4,5-5c0.1-0.1,0.2-0.1,0.1-0.3C15.6,0.4,15.7,0.4,15.8,0.5z"/>
	<path class="st55" d="M14.2,5.9c0.1-0.1,0.1-0.1,0.2-0.2c1.3-1.3,2.6-2.6,3.9-3.9c0.1-0.1,0.1-0.2,0.3-0.3c0.1,0,0.2,0.1,0.2,0.1
		c0,0.2-0.2,0.3-0.3,0.4c-1.2,1.2-2.4,2.4-3.5,3.5c-0.1,0.1-0.2,0.3-0.3,0.3C14.5,6,14.3,6,14.2,5.9z"/>
	<path class="st56" d="M17.4,1c0.1,0,0.1,0,0.2,0.1c0,0.1-0.1,0.2-0.1,0.3c-1.5,1.5-3,3-4.5,4.5c0,0-0.1,0.1-0.1,0.1
		c-0.1,0-0.2,0-0.3,0c-0.1-0.1,0-0.1,0-0.2c0-0.1,0.1-0.1,0.2-0.2c1.5-1.5,2.9-2.9,4.4-4.4C17.2,1.1,17.3,1,17.4,1z"/>
	<path class="st57" d="M19.1,14.5c0.1,0,0.2-0.1,0.2-0.2c1.6-1.6,3.3-3.3,4.9-4.9c0.1-0.1,0.1-0.2,0.3-0.2c0,0.1,0.1,0.2,0.1,0.2
		c-0.1,0-0.2,0.1-0.2,0.2c-1.7,1.7-3.3,3.3-5,5c-0.1,0.1-0.1,0.2-0.2,0.2C19,14.7,19,14.6,19.1,14.5z"/>
	<path class="st58" d="M18.5,7.5c0.1-0.1,0.2-0.1,0.2-0.2c1-1,2-2,3-3c0,0,0.1-0.1,0.1-0.1c0,0,0.1,0.1,0.1,0.1
		c-0.2,0.5-0.5,1-0.8,1.4c-0.1,0-0.2,0.1-0.3,0.2c-0.6,0.6-1.3,1.3-1.9,1.9c-0.1,0.1-0.1,0.2-0.3,0.2C18.6,7.8,18.4,7.7,18.5,7.5z"
		/>
	<path class="st59" d="M14.7,5.9c0-0.1,0.1-0.2,0.2-0.2c1.1-1.1,2.1-2.1,3.2-3.2c0.2-0.2,0.5-0.5,0.7-0.7c0.1,0.1,0.2,0.1,0.3,0.2
		C19,2,19,2,18.9,2.1c-1.2,1.2-2.4,2.4-3.6,3.5c-0.1,0.1-0.2,0.2-0.2,0.3C15,6,14.8,6,14.7,5.9z"/>
	<path class="st60" d="M18.2,1.4C18.1,1.4,18,1.5,18,1.6c-1.3,1.3-2.7,2.7-4,4c-0.1,0.1-0.2,0.2-0.2,0.3C13.6,6,13.5,6,13.4,6
		c-0.1-0.1-0.1-0.1,0-0.2c0-0.1,0.1-0.1,0.2-0.2c1.4-1.4,2.7-2.7,4.1-4.1c0.1-0.1,0.2-0.2,0.3-0.2C18,1.3,18.1,1.3,18.2,1.4z"/>
	<path class="st61" d="M21.5,3.9c-0.3,0.3-0.5,0.5-0.8,0.8C20,5.4,19.2,6.2,18.4,7c-0.1,0.1-0.1,0.1-0.2,0.2C18,7.2,18,7,17.9,6.9
		c0-0.1,0.1-0.2,0.2-0.2c1-1,1.9-1.9,2.9-2.9c0.1-0.1,0.1-0.2,0.3-0.2C21.4,3.7,21.5,3.8,21.5,3.9z"/>
	<path class="st62" d="M17.4,1c-0.1,0.1-0.1,0.1-0.2,0.2c-1.5,1.5-3,3-4.5,4.5c-0.1,0.1-0.2,0.2-0.2,0.3c-0.1,0.1-0.2,0.1-0.3,0
		c0-0.1,0.1-0.2,0.2-0.2C14,4.1,15.5,2.6,17.1,1c0,0,0.1-0.1,0.1-0.1C17.3,0.9,17.4,1,17.4,1z"/>
	<path class="st63" d="M22.8,5.4c0.1,0.1,0.1,0.2,0.2,0.3c0,0.1-0.1,0.1-0.1,0.2c-1.2,1.2-2.3,2.3-3.5,3.5c-0.1,0.1-0.2,0.3-0.4,0.1
		C19,9.4,19,9.2,19,9.1c0.2-0.1,0.4-0.2,0.5-0.4c1-1,2.1-2.1,3.1-3.1C22.7,5.5,22.7,5.5,22.8,5.4z"/>
	<path class="st64" d="M23.4,6.4c0,0.1-0.1,0.2-0.2,0.2c-1.3,1.3-2.6,2.6-3.9,3.9c-0.1,0.1-0.1,0.1-0.2,0.1c-0.1-0.1-0.1-0.2,0-0.3
		c0.1-0.1,0.2-0.2,0.3-0.3c1.2-1.2,2.4-2.4,3.6-3.6c0.1-0.1,0.2-0.2,0.3-0.3C23.3,6.2,23.4,6.3,23.4,6.4z"/>
	<path class="st65" d="M5.8,2c0,0.2-0.1,0.3-0.2,0.4C4.5,3.4,3.4,4.5,2.3,5.5C2.2,5.6,2.2,5.8,2,5.7C2.6,4.8,3.3,4,4.1,3.3
		C4.6,2.8,5.1,2.3,5.8,2z"/>
	<path class="st66" d="M18,1.3c-0.1,0-0.2,0.1-0.2,0.1c-1.4,1.4-2.8,2.8-4.2,4.2c-0.1,0.1-0.1,0.2-0.2,0.3c-0.1,0.1-0.3,0.1-0.4,0
		c0.1-0.1,0.1-0.1,0.2-0.2c1.4-1.4,2.8-2.8,4.3-4.3c0.1-0.1,0.2-0.2,0.2-0.3C17.8,1.1,17.9,1.2,18,1.3z"/>
	<path class="st67" d="M19.6,2.2c0.1,0,0.1,0.1,0.2,0.1c0,0.1-0.1,0.2-0.2,0.3c-1,1-2,2-3,3c-0.1,0.1-0.2,0.3-0.4,0.4
		c-0.1,0-0.2,0-0.3-0.1c-0.1-0.1,0-0.1,0-0.2c0,0,0.1-0.1,0.1-0.1c1.1-1.1,2.2-2.2,3.3-3.3C19.4,2.3,19.5,2.2,19.6,2.2z"/>
	<path class="st68" d="M23.3,6.1c0,0.1-0.1,0.2-0.2,0.2c-1.3,1.3-2.5,2.5-3.8,3.8c-0.1,0.1-0.1,0.1-0.2,0.1C19,10.2,19,10.1,19,10
		c0.1-0.2,0.2-0.2,0.4-0.4c1.2-1.2,2.5-2.5,3.7-3.7C23.2,6,23.2,6,23.3,6.1z"/>
	<path class="st69" d="M23.6,18.2c-0.1,0.2-0.2,0.4-0.3,0.5c-0.1,0.1-0.2,0.2-0.3,0.4c-1.3,1.3-2.6,2.6-3.9,3.9
		c-0.1,0.1-0.3,0.2-0.4,0.4c-0.2,0.1-0.4,0.2-0.5,0.3c-0.1,0-0.1-0.1-0.1-0.1c0-0.1,0.1-0.1,0.2-0.2c1.7-1.7,3.4-3.4,5.1-5.1
		c0.1-0.1,0.1-0.1,0.2-0.2C23.6,18.1,23.7,18.1,23.6,18.2z"/>
	<path class="st70" d="M10.8,5.9c0-0.1,0.1-0.2,0.2-0.2c1.6-1.6,3.3-3.3,4.9-4.9C16,0.7,16,0.6,16.1,0.5c0.1,0,0.1,0,0.2,0.1
		c0.1,0.1-0.1,0.2-0.1,0.3c-0.5,0.5-0.9,0.9-1.4,1.4c-1.2,1.2-2.4,2.4-3.6,3.6c0,0,0,0-0.1,0C11,6,10.9,6,10.8,5.9z"/>
	<path class="st71" d="M11.1,5.9c0-0.1,0.1-0.2,0.2-0.2c1.6-1.6,3.2-3.2,4.8-4.8c0.1-0.1,0.2-0.1,0.2-0.2c0,0,0.1,0,0.1,0
		c0.1,0.1,0,0.2-0.1,0.3c-1,1-1.9,1.9-2.9,2.9c-0.6,0.6-1.3,1.3-1.9,1.9c-0.1,0.1-0.2,0.1-0.2,0.2C11.3,6,11.2,6,11.1,5.9z"/>
	<path class="st72" d="M20.1,2.6c0.1,0.1,0.2,0.1,0.3,0.2c-1,1-2.1,2.1-3.1,3.1C17.1,6,17,6.1,17,6.3c-0.2,0-0.3,0-0.4-0.1
		c0-0.1,0.1-0.2,0.2-0.3c1-1,2.1-2.1,3.1-3.1C19.9,2.6,20,2.5,20.1,2.6z"/>
	<path class="st73" d="M22.8,5.4c0,0.1-0.1,0.1-0.1,0.2c-1.1,1.1-2.2,2.2-3.4,3.4c-0.1,0.1-0.1,0.2-0.3,0C19,9,19,9,19,8.9
		c0-0.2,0.1-0.3,0.2-0.4c0.2-0.1,0.4-0.3,0.6-0.5c0.9-0.9,1.8-1.8,2.6-2.6c0.1-0.1,0.1-0.2,0.2-0.2C22.7,5.3,22.7,5.4,22.8,5.4z"/>
	<path class="st74" d="M20.1,2.6c-0.1,0-0.1,0.1-0.2,0.2c-1,1-2,2-3,3c-0.1,0.1-0.2,0.2-0.3,0.3c-0.1,0.1-0.2,0-0.3-0.1
		c0-0.1,0.1-0.2,0.2-0.3c1-1,2.1-2.1,3.1-3.1c0.1-0.1,0.1-0.1,0.2-0.2C19.9,2.4,20,2.5,20.1,2.6z"/>
	<path class="st75" d="M22.7,5.2c-0.1,0.2-0.3,0.3-0.5,0.5c-0.8,0.8-1.6,1.6-2.4,2.4c-0.2,0.2-0.3,0.3-0.5,0.4
		c-0.1-0.1,0-0.2,0.1-0.2c0.3-0.3,0.5-0.7,0.7-1c0,0,0.1-0.1,0.1-0.1c0.2-0.1,0.3-0.2,0.4-0.3c0.6-0.6,1.1-1.1,1.7-1.7
		C22.3,5.1,22.4,5,22.5,5C22.6,5,22.6,5.1,22.7,5.2z"/>
	<path class="st76" d="M23.1,5.9c0,0.1-0.1,0.2-0.2,0.2c-1.2,1.2-2.4,2.4-3.6,3.6c-0.1,0.1-0.1,0.1-0.2,0.1c-0.1-0.1-0.1-0.2,0-0.3
		c0.1,0,0.2-0.1,0.3-0.2c1.1-1.1,2.3-2.3,3.4-3.4c0.1-0.1,0.1-0.2,0.2-0.2C23.1,5.8,23.1,5.8,23.1,5.9z"/>
	<path class="st77" d="M20.5,2.9c0.1,0,0.2,0.1,0.2,0.2c-1.1,1.1-2.2,2.2-3.3,3.3c0,0-0.1,0.1-0.1,0.1c-0.1,0-0.2,0-0.3-0.2
		c0-0.1,0.1-0.2,0.2-0.3c1-1,2-2,3-3C20.3,3,20.4,2.9,20.5,2.9z"/>
	<path class="st78" d="M20.9,3.3c0.1,0.1,0.2,0.1,0.2,0.2c0,0.1-0.1,0.1-0.1,0.2c-1,1-2,2-3,3c-0.1,0.1-0.1,0.1-0.2,0.1
		c-0.1,0-0.2-0.1-0.3-0.2c0-0.1,0.1-0.1,0.1-0.2c1-1,2.1-2.1,3.1-3.1C20.8,3.3,20.8,3.2,20.9,3.3z"/>
	<path class="st79" d="M20.9,3.3c-0.3,0.3-0.6,0.6-0.9,0.9c-0.7,0.7-1.4,1.4-2.1,2.1c-0.1,0.1-0.2,0.2-0.4,0.3c-0.1,0-0.2,0-0.2-0.1
		c0.1-0.1,0.1-0.1,0.2-0.2c1-1,2-2,3-3c0.1-0.1,0.1-0.2,0.3-0.2C20.8,3.2,20.9,3.2,20.9,3.3z"/>
	<path class="st80" d="M22.9,19.5c-0.4,0.6-0.9,1.2-1.4,1.7c-0.6,0.6-1.3,1.2-2,1.6c-0.1,0-0.1,0-0.1-0.1c0-0.1,0.1-0.2,0.2-0.3
		c1-1,1.9-1.9,2.9-2.9C22.6,19.5,22.7,19.5,22.9,19.5C22.8,19.4,22.9,19.4,22.9,19.5z"/>
	<path class="st81" d="M23.6,18.2c-0.1-0.1-0.2,0-0.2,0.1c-1.2,1.2-2.3,2.3-3.5,3.5c-0.6,0.6-1.1,1.1-1.7,1.7c0,0-0.2,0.1-0.1,0.2
		c-0.1,0.1-0.3,0.2-0.4,0.2c0-0.1,0.1-0.2,0.1-0.2c1.9-1.9,3.8-3.8,5.8-5.8c0.1-0.1,0.1-0.2,0.2-0.1C23.8,17.9,23.7,18,23.6,18.2z"
		/>
	<path class="st82" d="M20.5,2.9C20.5,3,20.4,3,20.4,3c-1,1-2.1,2.1-3.1,3.1c0,0-0.1,0.1-0.1,0.2c-0.1,0-0.1,0-0.1-0.1
		C16.9,6.1,17,6.1,17,6c1-1,2.1-2.1,3.1-3.1c0.1-0.1,0.1-0.1,0.2-0.1C20.4,2.8,20.5,2.9,20.5,2.9z"/>
	<path class="st83" d="M22.9,19.5c-0.1-0.1-0.2,0-0.2,0.1c-1,1-2,2-3.1,3.1c-0.1,0.1-0.2,0.1-0.1,0.2c-0.3,0.2-0.5,0.3-0.8,0.5
		c0-0.1,0.1-0.2,0.1-0.2c1.4-1.4,2.9-2.9,4.3-4.3c0.1-0.1,0.1-0.1,0.2-0.1C23.2,19,23,19.2,22.9,19.5z"/>
	<path class="st84" d="M19.6,2.2c-0.1,0-0.2,0.1-0.2,0.2c-1.1,1.1-2.2,2.2-3.3,3.3C16,5.8,15.9,5.8,16,5.9c-0.1,0.1-0.2,0.1-0.3,0
		c0-0.1,0.1-0.1,0.1-0.2c1.2-1.2,2.4-2.4,3.6-3.6c0,0,0.1,0,0.1-0.1C19.5,2.1,19.6,2.2,19.6,2.2z"/>
	<path class="st85" d="M22.5,5c-0.2,0.3-0.5,0.5-0.7,0.8c-0.4,0.4-0.8,0.8-1.2,1.2c-0.1,0.1-0.2,0.2-0.4,0.2c0-0.1,0-0.1,0-0.2
		c0.3-0.4,0.5-0.8,0.8-1.2c0,0,0.1-0.1,0.1-0.1c0.1,0,0.1-0.1,0.2-0.1c0.3-0.2,0.5-0.5,0.8-0.8c0.1-0.1,0.1-0.2,0.3-0.1
		C22.4,4.8,22.4,4.9,22.5,5z"/>
	<path class="st86" d="M17.8,6.8c0.3-0.3,0.5-0.5,0.8-0.8c0.8-0.8,1.7-1.7,2.5-2.5c0.1,0,0.1,0.1,0.2,0.1c-0.1,0.1-0.2,0.1-0.2,0.2
		c-1,1-1.9,1.9-2.9,2.9c-0.1,0.1-0.1,0.1-0.2,0.2C17.9,6.9,17.8,6.9,17.8,6.8z"/>
	<path class="st87" d="M8.3,6.1C8.3,6,8.4,6,8.4,5.9c1.8-1.8,3.7-3.7,5.5-5.5c0.1-0.1,0.2-0.2,0.2-0.3c0.1,0,0.2,0,0.2,0
		c0,0.1-0.1,0.2-0.2,0.3c-1.7,1.7-3.5,3.5-5.2,5.2C8.8,5.8,8.6,5.9,8.5,6.1C8.5,6.1,8.4,6.2,8.3,6.1z"/>
	<path class="st88" d="M8.5,6c0-0.1,0.1-0.2,0.2-0.3c1.8-1.8,3.6-3.6,5.4-5.4c0.1-0.1,0.1-0.1,0.2-0.2c0,0,0.1,0,0.1,0
		c0,0.1-0.1,0.2-0.2,0.2c-1.8,1.8-3.5,3.5-5.3,5.3C8.8,5.8,8.7,5.9,8.7,6C8.7,6.1,8.6,6.1,8.5,6z"/>
	<path class="st89" d="M22.3,4.7c-0.1,0-0.2,0.1-0.2,0.2c-0.3,0.3-0.5,0.5-0.8,0.8c0,0-0.1,0.2-0.2,0.1c0,0,0,0,0,0c0,0,0,0,0,0
		c0.2-0.4,0.5-0.7,0.7-1.1c0-0.1,0.1-0.2,0.2-0.2C22.1,4.4,22.2,4.6,22.3,4.7z"/>
	<path class="st0" d="M11.4,0.1c-0.1,0.1-0.2,0-0.3,0C11.2,0,11.3,0.1,11.4,0.1z"/>
	<path class="st0" d="M0.1,11.1c0,0.1,0,0.2,0,0.3C0.1,11.3,0,11.2,0.1,11.1z"/>
	<path class="st9" d="M13.6,24.9c0.1-0.1,0.2,0,0.3,0C13.8,25,13.7,24.9,13.6,24.9z"/>
	<path class="st36" d="M0.1,13.6c0.1,0.2,0.2,0.1,0.2,0c0.8-0.8,1.6-1.6,2.4-2.4C3.9,10.1,5,8.9,6.2,7.8c0.1-0.1,0.2-0.2,0.4-0.3
		c0,0,0,0.1,0,0.1C6.4,7.8,6.3,8.1,6.1,8.4C6,8.5,5.9,8.6,5.8,8.7C4,10.4,2.3,12.2,0.5,14c-0.1,0.1-0.1,0.1-0.2,0.2
		c-0.1,0.1-0.2,0-0.2-0.1C0.1,13.9,0,13.8,0.1,13.6z"/>
	<path class="st90" d="M8.4,24.3c-0.1,0-0.3-0.1-0.4-0.1c0-0.2,0.1-0.2,0.2-0.3c0.7-0.7,1.4-1.4,2.2-2.2c0.9-0.9,1.7-1.7,2.6-2.6
		c0,0,0,0,0.1,0c0.2,0,0.3,0,0.5,0c0.1,0.1,0.1,0.1,0,0.2c-0.1,0.1-0.1,0.1-0.2,0.2C11.7,21.1,10.1,22.7,8.4,24.3
		C8.5,24.3,8.5,24.3,8.4,24.3z"/>
	<path class="st38" d="M9.8,24.7c-0.1,0-0.2,0-0.3-0.1c0-0.2,0.1-0.2,0.2-0.3c0.9-0.9,1.8-1.8,2.7-2.7c0.8-0.8,1.5-1.5,2.3-2.3
		c0.1-0.1,0.1-0.2,0.3-0.2c0.1,0,0.2,0,0.4,0c0.1,0.1,0,0.1,0,0.2c-0.1,0.1-0.1,0.2-0.2,0.3c-1.7,1.7-3.3,3.3-5,5
		C10,24.6,9.9,24.7,9.8,24.7z"/>
	<path class="st91" d="M0.1,14.1c0,0,0.1,0.1,0.2,0c0,0,0.1-0.1,0.1-0.1c1.8-1.8,3.6-3.6,5.4-5.4C5.9,8.5,6,8.4,6.1,8.4
		c0.1,0.2,0,0.4-0.1,0.5C5.9,9,5.8,9.1,5.6,9.3c-1.7,1.7-3.4,3.4-5.1,5.1c-0.1,0.1-0.1,0.1-0.2,0.2c-0.1,0.1-0.2,0-0.2-0.1
		C0.1,14.3,0.1,14.2,0.1,14.1z"/>
	<path class="st42" d="M8.4,24.3c0-0.1,0.1-0.2,0.2-0.2c1.6-1.6,3.1-3.1,4.7-4.7c0.1-0.1,0.2-0.1,0.2-0.2C13.7,19,13.8,19,14,19
		c0.1,0.1,0.1,0.1,0,0.2c-0.1,0.1-0.1,0.1-0.2,0.2c-1.5,1.5-3,3-4.5,4.5c-0.2,0.2-0.3,0.3-0.5,0.5C8.7,24.4,8.6,24.4,8.4,24.3z"/>
	<path class="st34" d="M10.5,24.8c-0.1,0-0.2,0-0.3,0c-0.1-0.1,0-0.1,0-0.2c0.1-0.1,0.2-0.2,0.3-0.3c1.6-1.6,3.3-3.3,4.9-4.9
		c0.1-0.1,0.2-0.2,0.3-0.3C15.9,19,16,19,16.2,19c0.1,0,0,0.1,0,0.2c-0.1,0.1-0.1,0.2-0.2,0.3c-1.8,1.8-3.5,3.5-5.3,5.3
		C10.7,24.8,10.6,24.8,10.5,24.8z"/>
	<path class="st30" d="M15.7,19.1c0,0.1-0.1,0.2-0.2,0.3c-1.7,1.7-3.4,3.4-5.1,5.1c-0.1,0.1-0.2,0.2-0.2,0.4c-0.2,0-0.3-0.1-0.5-0.1
		c0.3-0.3,0.6-0.7,1-1c1.4-1.4,2.8-2.8,4.2-4.2c0.1-0.1,0.3-0.3,0.4-0.4C15.4,19,15.6,19,15.7,19.1z"/>
	<path class="st92" d="M5.9,23.1C5.7,23,5.6,23,5.5,22.9c0-0.2,0.1-0.2,0.2-0.3c1-1,2-2,3.1-3.1c0.1-0.1,0.3-0.2,0.3-0.5
		c0.2,0,0.4,0,0.6,0c0.1,0.1,0.1,0.1,0,0.2c0,0.1-0.1,0.1-0.1,0.1C8.5,20.6,7.2,21.8,6,23C6,23.1,6,23.1,5.9,23.1z"/>
	<path class="st93" d="M7.1,23.8c-0.1,0-0.3-0.1-0.4-0.2c0-0.1,0.1-0.2,0.2-0.3c1.3-1.3,2.6-2.6,3.9-3.9c0.1-0.1,0.2-0.3,0.3-0.3
		c0.2,0,0.3,0,0.5,0c0.1,0.1,0.1,0.1,0,0.2c0,0.1-0.1,0.1-0.2,0.2c-1.4,1.4-2.7,2.7-4.1,4.1C7.3,23.7,7.2,23.8,7.1,23.8z"/>
	<path class="st46" d="M17.4,18.5c-0.1,0.2-0.2,0.3-0.3,0.4c-1.9,1.9-3.8,3.8-5.7,5.7c-0.1,0.1-0.2,0.1-0.2,0.3c-0.1,0-0.2,0-0.3,0
		c-0.1-0.1,0-0.2,0-0.2c0.1-0.1,0.1-0.1,0.2-0.2c1.6-1.6,3.2-3.2,4.8-4.8c0.3-0.3,0.6-0.6,0.9-0.9C16.9,18.7,17.1,18.5,17.4,18.5z"
		/>
	<path class="st45" d="M0.4,15.4c0-0.1-0.1-0.2-0.1-0.3c0.1-0.1,0.2-0.2,0.3-0.3c1.6-1.6,3.3-3.3,4.9-4.9c0.1-0.1,0.1-0.1,0.2-0.2
		c0.1,0,0.1-0.1,0.2,0c0,0.1,0,0.2,0,0.4c-0.1,0.1-0.2,0.2-0.4,0.4C4,12,2.4,13.7,0.7,15.3c-0.1,0.1-0.1,0.1-0.2,0.2
		C0.5,15.5,0.4,15.5,0.4,15.4z"/>
	<path class="st40" d="M8.8,24.5c0-0.1,0.1-0.2,0.2-0.3c1.6-1.6,3.2-3.2,4.8-4.8c0.1-0.1,0.2-0.1,0.2-0.2c0.1-0.1,0.3-0.1,0.4,0
		c0.1,0.1,0.1,0.1,0,0.2c-0.1,0.1-0.1,0.1-0.2,0.2c-1.5,1.5-3.1,3.1-4.6,4.6c-0.2,0.2-0.3,0.3-0.4,0.5C9.1,24.5,9,24.5,8.8,24.5z"/>
	<path class="st94" d="M3.8,21.5c-0.1-0.1-0.2-0.2-0.3-0.3c0-0.2,0.2-0.4,0.4-0.5c0.5-0.5,1-1,1.5-1.5c0.4-0.4,0.8-0.8,1.1-1.1
		c0.1-0.1,0.1-0.2,0.3-0.2C7,17.9,7.1,18,7.2,18.2c0,0.1-0.1,0.2-0.1,0.3c-1,1-2,2-3,3C4,21.4,3.9,21.6,3.8,21.5z"/>
	<path class="st95" d="M5.9,9.7c-0.1,0-0.2,0.1-0.2,0.2C4,11.6,2.2,13.3,0.5,15c-0.1,0.1-0.1,0.2-0.2,0.2c-0.1-0.1-0.1-0.3-0.1-0.4
		c0.1-0.1,0.2-0.2,0.3-0.3c1.7-1.7,3.4-3.4,5.1-5.1c0.1-0.1,0.2-0.2,0.2-0.3C5.9,9,5.9,9,6,9.1C6,9.3,6,9.5,5.9,9.7z"/>
	<path class="st96" d="M13,19.1c0,0.1-0.1,0.2-0.2,0.2c-1.5,1.5-3,3-4.5,4.5C8.2,24,8.1,24,8.1,24.2c-0.1,0-0.2-0.1-0.4-0.1
		c0-0.2,0.1-0.2,0.3-0.3c1.4-1.4,2.9-2.9,4.3-4.3c0.1-0.1,0.2-0.3,0.3-0.3C12.7,19,12.9,19,13,19.1z"/>
	<path class="st68" d="M5.9,23.1c1.2-1.3,2.5-2.5,3.7-3.8c0.1-0.1,0.2-0.1,0.2-0.2C10,19,10.1,19,10.3,19c0.1,0,0.1,0.1,0,0.2
		c-0.1,0.1-0.1,0.2-0.2,0.3c-1.2,1.2-2.4,2.4-3.7,3.7c-0.1,0.1-0.1,0.2-0.3,0.2C6.1,23.2,6,23.2,5.9,23.1z"/>
	<path class="st39" d="M1.6,18.5c-0.1-0.1-0.1-0.2-0.2-0.4c0-0.1,0.1-0.1,0.1-0.2c1.4-1.4,2.7-2.7,4.1-4.1c0.1-0.1,0.2-0.3,0.3-0.1
		c0,0.1,0,0.3,0,0.4c-0.1,0.1-0.2,0.2-0.3,0.3c-1.3,1.3-2.5,2.5-3.8,3.8C1.7,18.4,1.7,18.5,1.6,18.5z"/>
	<path class="st53" d="M11.2,19.1c0,0.1-0.1,0.1-0.1,0.2c-1.4,1.4-2.8,2.8-4.2,4.2c0,0-0.1,0-0.1,0.1c-0.1,0-0.2-0.1-0.4-0.2
		c1.3-1.3,2.7-2.7,4-4c0.1-0.1,0.2-0.3,0.3-0.3C10.9,19,11,19,11.2,19.1z"/>
	<path class="st48" d="M0.5,16.1c-0.1-0.1-0.1-0.2-0.1-0.3c0-0.1,0.1-0.2,0.2-0.2c1.7-1.7,3.4-3.4,5-5c0.1-0.1,0.2-0.2,0.3-0.1
		c0,0.1,0,0.2,0,0.3c0,0.1-0.1,0.2-0.2,0.2c-1.6,1.6-3.3,3.3-4.9,4.9C0.7,16,0.7,16.1,0.5,16.1z"/>
	<path class="st41" d="M7.1,23.8c0.1-0.1,0.1-0.1,0.2-0.2c1.4-1.4,2.8-2.8,4.2-4.2c0.1-0.1,0.2-0.2,0.2-0.3c0.1-0.1,0.3-0.1,0.4,0
		c0.1,0.1,0.1,0.1,0,0.2c-0.1,0.1-0.1,0.1-0.2,0.2c-1.5,1.5-3,2.9-4.4,4.4c0,0,0,0,0,0C7.3,23.9,7.2,23.9,7.1,23.8z"/>
	<path class="st49" d="M2.1,19.4c-0.1-0.1-0.2-0.2-0.2-0.3C1.9,19,2,19,2,18.9c1.2-1.2,2.4-2.4,3.6-3.6c0.1-0.1,0.2-0.3,0.3-0.1
		c0,0.1,0,0.3,0,0.4c0,0.1-0.1,0.2-0.2,0.2c-1.1,1.1-2.2,2.2-3.3,3.3C2.4,19.3,2.3,19.4,2.1,19.4z"/>
	<path class="st97" d="M16.7,18.9c-0.1,0.2-0.2,0.3-0.4,0.4c-1.8,1.8-3.5,3.5-5.3,5.3c-0.1,0.1-0.2,0.1-0.2,0.3c-0.1,0-0.2,0-0.3,0
		c0-0.1,0.1-0.2,0.2-0.2c1.7-1.7,3.4-3.4,5.2-5.2c0.1-0.1,0.3-0.3,0.4-0.4C16.4,18.9,16.5,18.8,16.7,18.9z"/>
	<path class="st43" d="M0.8,17c-0.1-0.2-0.1-0.3-0.2-0.5c0.1-0.1,0.2-0.2,0.3-0.2c1.5-1.5,3.1-3.1,4.6-4.6c0.1-0.1,0.2-0.3,0.3-0.1
		c0,0.1,0,0.2,0,0.3c-0.1,0.2-0.2,0.2-0.3,0.3c-1.5,1.5-3,3-4.5,4.5C1,16.7,0.9,16.9,0.8,17z"/>
	<path class="st98" d="M0.8,17c0-0.1,0.1-0.2,0.1-0.3c1.6-1.6,3.1-3.1,4.7-4.7c0.1-0.1,0.1-0.1,0.2-0.2C6,11.9,6,12,6,12.1
		c0,0.1-0.1,0.2-0.2,0.2c-1.5,1.5-3.1,3.1-4.6,4.6C1.1,17,1,17.2,0.9,17.1C0.8,17.1,0.8,17,0.8,17z"/>
	<path class="st47" d="M3.8,21.5c0.1,0,0.1-0.1,0.2-0.1c1-1,2-2,3-3c0.1-0.1,0.1-0.1,0.1-0.2c0.2,0,0.2,0.1,0.3,0.2
		c0,0.1,0,0.2-0.1,0.3c-1,1-2,2-3,3c-0.1,0.1-0.1,0.1-0.2,0.1C4,21.7,3.9,21.6,3.8,21.5z"/>
	<path class="st99" d="M0.9,17.1c0.1,0,0.2-0.1,0.2-0.2c1.5-1.5,3-3,4.6-4.6c0.1-0.1,0.1-0.1,0.2-0.2C6,12.3,6,12.4,6,12.5
		c-0.1,0.2-0.2,0.2-0.3,0.3c-1.4,1.4-2.9,2.9-4.3,4.3c-0.1,0.1-0.1,0.2-0.3,0.2C1,17.3,0.9,17.2,0.9,17.1z"/>
	<path class="st32" d="M7.5,23.9c0-0.1,0.1-0.2,0.2-0.3c1.4-1.4,2.9-2.9,4.3-4.3c0.1-0.1,0.2-0.1,0.2-0.2c0.1-0.1,0.3-0.1,0.4,0
		c0,0.1-0.1,0.2-0.2,0.2c-1.4,1.4-2.8,2.8-4.1,4.1c-0.2,0.2-0.4,0.4-0.5,0.6C7.6,24,7.5,24,7.5,23.9z"/>
	<path class="st56" d="M1,17.4c0.1-0.1,0.1-0.1,0.2-0.2c1.5-1.5,3-3,4.5-4.5c0.1-0.1,0.1-0.2,0.2-0.2C6,12.7,6,12.8,6,12.9
		c0,0.1-0.1,0.2-0.2,0.2c-1.4,1.4-2.9,2.9-4.3,4.3c-0.1,0.1-0.2,0.2-0.3,0.2C1.1,17.6,1,17.5,1,17.4z"/>
	<path class="st54" d="M5.9,10.5c-0.1,0-0.2,0.1-0.2,0.2c-1.7,1.7-3.3,3.3-5,5c-0.1,0.1-0.1,0.1-0.2,0.2c0-0.1-0.1-0.3-0.1-0.4
		c0.1,0.1,0.2,0,0.3-0.1c0.9-0.9,1.9-1.9,2.8-2.8c0.7-0.7,1.5-1.5,2.2-2.2c0.1-0.1,0.1-0.2,0.2-0.2C6,10.2,6,10.3,5.9,10.5z"/>
	<path class="st100" d="M9.2,24.5c0-0.1,0.1-0.2,0.2-0.3c1.6-1.6,3.3-3.3,4.9-4.9c0.1-0.1,0.2-0.1,0.2-0.2c0.1-0.1,0.3-0.1,0.4,0
		c-0.1,0.1-0.1,0.1-0.2,0.2c-1.7,1.7-3.3,3.3-5,5c-0.1,0.1-0.2,0.2-0.2,0.3C9.3,24.6,9.3,24.6,9.2,24.5z"/>
	<path class="st101" d="M5.9,13.7c-0.1,0-0.2,0.1-0.2,0.2c-1.4,1.4-2.7,2.7-4.1,4.1c-0.1,0.1-0.1,0.1-0.2,0.2
		C1.3,18.1,1.3,18,1.3,18c-0.1-0.2,0.1-0.2,0.2-0.3c1.4-1.4,2.7-2.7,4.1-4.1c0.1-0.1,0.1-0.1,0.2-0.2c0.1,0,0.1-0.1,0.2,0
		C6,13.5,6,13.6,5.9,13.7z"/>
	<path class="st102" d="M6.8,17.9c-0.9,0.9-1.7,1.7-2.6,2.6c-0.2,0.2-0.5,0.5-0.7,0.7c-0.1-0.1-0.2-0.2-0.2-0.3
		c-0.1-0.1,0-0.2,0.1-0.2c1-1,2-2,3.1-3.1c0.1-0.1,0.1-0.1,0.2-0.1C6.7,17.6,6.8,17.7,6.8,17.9z"/>
	<path class="st103" d="M5.9,9c0,0.2-0.1,0.3-0.2,0.4c-1.7,1.7-3.5,3.4-5.2,5.2c-0.1,0.1-0.2,0.2-0.3,0.2c0-0.1,0-0.2,0-0.3
		c0,0.1,0.1,0.1,0.2,0c0,0,0.1-0.1,0.1-0.1c1.7-1.7,3.5-3.5,5.2-5.2C5.8,9,5.8,8.9,5.9,9C6,9,6,9,5.9,9z"/>
	<path class="st104" d="M9.1,19.1c0.1,0,0.2,0.1,0,0.2c-0.4,0.4-0.7,0.7-1.1,1.1c-0.7,0.7-1.4,1.4-2.1,2.1c-0.1,0.1-0.3,0.3-0.4,0.4
		c-0.1,0-0.2-0.1-0.3-0.2c0-0.1,0.1-0.2,0.2-0.2c1-1,2-2,3-3c0.1-0.1,0.2-0.2,0.2-0.3C8.7,19,8.8,19,8.9,19C9,19,9,19,9.1,19.1z"/>
	<path class="st66" d="M5.9,13.3c-0.1,0-0.2,0.1-0.2,0.1c-1.4,1.4-2.9,2.9-4.3,4.3c-0.1,0.1-0.1,0.1-0.1,0.2
		c-0.1-0.1-0.1-0.2-0.2-0.3c0.1,0,0.2-0.1,0.3-0.2c1.4-1.4,2.9-2.9,4.3-4.3c0.1-0.1,0.1-0.1,0.2-0.2C6,13.1,6,13.2,5.9,13.3z"/>
	<path class="st105" d="M2.4,19.9c0-0.1-0.1-0.1-0.1-0.2c-0.1-0.2,0.1-0.3,0.1-0.3c1.1-1.1,2.2-2.2,3.2-3.2C5.7,16.1,5.8,16,5.8,16
		c0,0,0.1-0.1,0.1,0c0.1,0.1,0.1,0.3,0.1,0.5c-0.2,0.1-0.3,0.2-0.5,0.4c-1,1-2,2-2.9,2.9C2.6,19.8,2.6,19.9,2.4,19.9z"/>
	<path class="st70" d="M0.5,16.1C0.6,16,0.7,16,0.8,15.9C2.4,14.3,4,12.6,5.7,11c0.1-0.1,0.1-0.1,0.2-0.2C6,10.9,6,11,6,11.1
		c-0.1,0.1-0.2,0.2-0.3,0.3C4,13,2.5,14.6,0.9,16.1c-0.1,0.1-0.1,0.2-0.3,0.2C0.6,16.2,0.6,16.2,0.5,16.1z"/>
	<path class="st71" d="M0.6,16.3c0.1,0,0.2-0.1,0.2-0.2c1.6-1.6,3.2-3.2,4.8-4.8c0.1-0.1,0.1-0.2,0.2-0.2c0.1,0.1,0.1,0.2,0,0.3
		c-0.1,0-0.2,0.1-0.2,0.2c-1.6,1.6-3.2,3.2-4.7,4.7c-0.1,0.1-0.1,0.2-0.3,0.1C0.6,16.4,0.6,16.4,0.6,16.3z"/>
	<path class="st106" d="M1.6,18.5c0.1-0.1,0.1-0.2,0.2-0.2C3,17,4.4,15.7,5.7,14.4c0.1-0.1,0.1-0.2,0.2-0.2C6,14.3,6,14.4,6,14.5
		c-0.1,0.1-0.2,0.2-0.3,0.3c-1.2,1.2-2.4,2.4-3.7,3.7c-0.1,0.1-0.1,0.2-0.3,0.2C1.6,18.7,1.6,18.6,1.6,18.5z"/>
	<path class="st64" d="M10.7,19.1c0,0.1-0.1,0.2-0.1,0.2c-1.3,1.3-2.6,2.6-3.9,3.9c-0.1,0.1-0.1,0.2-0.2,0.2c-0.1,0-0.1,0-0.2-0.1
		c0.1-0.1,0.1-0.1,0.2-0.2c1.2-1.2,2.4-2.4,3.6-3.6c0.1-0.1,0.3-0.3,0.4-0.4C10.5,19,10.6,19,10.7,19.1z"/>
	<path class="st107" d="M1.7,18.7c0.1-0.1,0.1-0.1,0.2-0.2c1.3-1.3,2.5-2.5,3.8-3.8c0.1-0.1,0.1-0.2,0.2-0.2C6,14.6,6,14.7,6,14.8
		c-0.1,0.1-0.2,0.2-0.3,0.3c-1.2,1.2-2.4,2.4-3.6,3.6C2,18.8,1.9,18.9,1.8,19C1.7,18.9,1.7,18.8,1.7,18.7z"/>
	<path class="st108" d="M2.4,19.9c0-0.1,0.1-0.1,0.1-0.2c1.1-1.1,2.1-2.1,3.2-3.2c0.1-0.1,0.1-0.2,0.3-0.1c0.1,0,0.1,0.1,0.1,0.2
		c0,0.1-0.1,0.1-0.2,0.2c-1.1,1.1-2.2,2.2-3.3,3.3c0,0,0,0,0,0C2.6,20.1,2.5,20,2.4,19.9z"/>
	<path class="st72" d="M2.6,20.2c0-0.1,0.1-0.1,0.1-0.2c1.1-1.1,2.2-2.2,3.3-3.3c0,0,0.1,0,0.1-0.1c0.1,0.1,0.2,0.2,0.2,0.3
		C6.2,17,6.1,17.1,6,17.2c-1,1-2,2-3,3c-0.1,0.1-0.1,0.2-0.3,0.2C2.7,20.3,2.7,20.2,2.6,20.2z"/>
	<path class="st109" d="M5.9,16c-0.8,0.8-1.6,1.6-2.5,2.5c-0.4,0.3-0.7,0.7-1.1,1.1c-0.1,0.1-0.1,0.1-0.1,0.2
		c-0.1-0.1-0.2-0.2-0.2-0.3c1.2-1.2,2.4-2.4,3.6-3.6c0.1-0.1,0.1-0.1,0.2-0.2C6,15.8,6,15.9,5.9,16z"/>
	<path class="st75" d="M8.6,19.1c0.1,0.1,0,0.1-0.1,0.2c-1.1,1.1-2.2,2.2-3.3,3.3c0,0,0,0-0.1,0c-0.1,0-0.2-0.1-0.3-0.2
		c0.7-0.7,1.4-1.4,2.1-2.1c0.1-0.1,0.2-0.2,0.3-0.4C7.7,19.7,8.1,19.4,8.6,19.1C8.6,19.1,8.6,19.1,8.6,19.1z"/>
	<path class="st110" d="M1.8,19c0.1-0.1,0.1-0.1,0.2-0.2c1.2-1.2,2.5-2.5,3.7-3.7c0.1-0.1,0.1-0.2,0.2-0.2C6,15,6,15.1,5.9,15.2
		c-0.1,0-0.2,0.1-0.2,0.2c-1.2,1.2-2.4,2.4-3.5,3.5C2,19,2,19,1.9,19.1C1.8,19.1,1.8,19,1.8,19z"/>
	<path class="st111" d="M4.1,21.8c1.1-1.1,2.1-2.1,3.2-3.2c0.1-0.1,0.1-0.1,0.1-0.2c0.1,0,0.2,0,0.3,0.1c0,0.1-0.1,0.2-0.2,0.3
		c-0.8,0.8-1.5,1.5-2.3,2.3c-0.1,0.1-0.2,0.2-0.3,0.4c-0.2,0.2-0.4,0.3-0.6,0.4C4.2,21.9,4.2,21.8,4.1,21.8z"/>
	<path class="st112" d="M2.8,20.4c0.2-0.2,0.3-0.3,0.5-0.5C4.2,18.9,5.1,18,6,17.1c0.1-0.1,0.1-0.2,0.2-0.1c0.1,0,0.1,0.1,0.1,0.2
		c-1.1,1-2.1,2.1-3.2,3.1c-0.1,0.1-0.1,0.2-0.3,0.2C2.9,20.5,2.8,20.4,2.8,20.4z"/>
	<path class="st113" d="M2.9,20.5c0.1,0,0.2-0.1,0.2-0.2c1-1,2-2,3-3c0.1-0.1,0.1-0.2,0.2-0.2c0.1,0,0.1,0.1,0.1,0.2
		c0,0.1-0.1,0.1-0.1,0.1c-1.1,1.1-2.2,2.2-3.3,3.3C3,20.7,3,20.6,2.9,20.5z"/>
	<path class="st114" d="M3.1,20.8c0-0.1,0.1-0.1,0.1-0.2c1-1,2.1-2.1,3.1-3.1c0,0,0.1,0,0.1-0.1c0.1,0,0.2,0.1,0.1,0.2
		c-0.2,0.2-0.4,0.3-0.5,0.5c-0.9,0.9-1.7,1.7-2.6,2.6c-0.1,0.1-0.2,0.1-0.2,0.2C3.2,20.9,3.2,20.8,3.1,20.8z"/>
	<path class="st115" d="M7.3,20.1c0,0.1-0.1,0.2-0.1,0.3c-0.7,0.7-1.3,1.3-2,2c-0.1,0.1-0.1,0.1-0.2,0.1c-0.1,0-0.2-0.1-0.2-0.2
		c0-0.1,0.2-0.2,0.2-0.3c0.3-0.4,0.7-0.7,1.1-1.1c0.2-0.3,0.6-0.4,0.8-0.6c0.1-0.1,0.2-0.1,0.2-0.2C7.2,20.1,7.2,20,7.3,20.1z"/>
	<path class="st116" d="M6.1,20.9C6,20.9,6,21,6.1,20.9c-0.5,0.5-0.9,1-1.3,1.4c-0.2-0.1-0.3-0.2-0.4-0.3c0.2-0.2,0.4-0.2,0.6-0.4
		c0.3-0.2,0.6-0.4,0.9-0.6C5.9,20.9,5.9,20.8,6.1,20.9z"/>
	<path class="st117" d="M6.6,17.6c0-0.1-0.1-0.1-0.1-0.2c0-0.1,0-0.1-0.1-0.2c0-0.1-0.1-0.1-0.1-0.2c0-0.1-0.1-0.2-0.1-0.3
		c0-0.1,0-0.1-0.1-0.2C6,16.3,6,16.1,5.9,16c0-0.1,0-0.2,0-0.3c0-0.2,0-0.3,0-0.5c0-0.1,0-0.2,0-0.3c0-0.1,0-0.2,0-0.3
		c0-0.1,0-0.2,0-0.3c0-0.2,0-0.3,0-0.5c0-0.1,0-0.3,0-0.4c0-0.1,0-0.3,0-0.4c0-0.1,0-0.2,0-0.3c0-0.1,0-0.3,0-0.4c0-0.1,0-0.2,0-0.3
		c0-0.1,0-0.3,0-0.4c0-0.1,0-0.2,0-0.3c0-0.1,0-0.2,0-0.3c0-0.1,0-0.2,0-0.3c0-0.1,0-0.2,0-0.3c0-0.1,0-0.3,0-0.4c0-0.2,0-0.4,0-0.6
		C6,9,6,9,6,8.9C6,8.8,6,8.6,6.1,8.4c0.1-0.3,0.3-0.6,0.5-0.9c0.3-0.3,0.6-0.7,0.9-0.9C7.8,6.4,8,6.3,8.3,6.1c0.1,0,0.2,0,0.2-0.1
		c0,0,0.1,0,0.1,0C8.8,6,8.9,6,9,5.9c0.2,0,0.4,0,0.6,0c0.1,0,0.3,0,0.4,0c0.1,0,0.2,0,0.3,0c0.1,0,0.3,0,0.4,0c0.1,0,0.2,0,0.3,0
		c0.1,0,0.2,0,0.3,0c0.1,0,0.3,0,0.4,0c0.1,0,0.3,0,0.4,0c0.1,0,0.2,0,0.3,0c0.1,0,0.2,0,0.3,0c0.1,0,0.3,0,0.4,0c0.1,0,0.3,0,0.4,0
		c0.2,0,0.3,0,0.5,0c0.2,0,0.3,0,0.5,0c0.1,0,0.3,0,0.4,0c0.2,0,0.4,0,0.5,0c0.1,0,0.2,0,0.3,0c0.1,0,0.2,0,0.3,0.1
		c0.1,0,0.2,0.1,0.3,0.1c0.1,0.1,0.3,0.1,0.4,0.2c0,0,0.1,0,0.1,0.1c0.1,0,0.2,0.1,0.2,0.1c0.1,0,0.1,0.1,0.2,0.1
		c0.1,0.1,0.2,0.1,0.2,0.2c0,0.1,0.1,0.1,0.1,0.1C18,7,18.1,7.1,18.2,7.2c0.1,0.1,0.2,0.2,0.3,0.3c0.1,0.1,0.2,0.3,0.2,0.4
		c0.1,0.1,0.1,0.2,0.2,0.3C19,8.5,19.1,8.7,19,8.9c0,0,0,0.1,0,0.1c0,0.2,0,0.4,0,0.5c0,0.1,0,0.2,0,0.3c0,0.1,0,0.3,0,0.4
		c0,0.1,0,0.3,0,0.4c0,0.1,0,0.3,0,0.4c0,0.2,0,0.4,0,0.5c0,0.2,0,0.4,0,0.5c0,0.2,0,0.3,0,0.5c0,0.2,0,0.3,0,0.5c0,0.1,0,0.3,0,0.4
		c0,0.1,0,0.3,0,0.4c0,0.1,0,0.3,0,0.4c0,0.1,0,0.2,0,0.3c0,0.1,0,0.3,0,0.4c0,0.2,0,0.3,0,0.5c0,0.2-0.1,0.4-0.1,0.5
		c0,0.2-0.1,0.3-0.1,0.5c-0.1,0.2-0.2,0.4-0.3,0.6c-0.3,0.5-0.7,0.9-1.2,1.2c-0.2,0.1-0.4,0.2-0.6,0.3c-0.2,0-0.3,0.1-0.5,0.1
		c-0.2,0-0.4,0.1-0.5,0.1c-0.1,0-0.3,0-0.4,0c-0.1,0-0.3,0-0.4,0c-0.1,0-0.3,0-0.4,0c-0.1,0-0.3,0-0.4,0c-0.2,0-0.3,0-0.5,0
		c-0.2,0-0.4,0-0.5,0c-0.1,0-0.3,0-0.4,0c-0.1,0-0.3,0-0.4,0c-0.1,0-0.3,0-0.4,0c-0.2,0-0.4,0-0.5,0c-0.2,0-0.3,0-0.5,0
		c-0.1,0-0.2,0-0.3,0c-0.2,0-0.4,0-0.5,0c-0.2,0-0.5,0-0.7,0c-0.1,0-0.1,0-0.2,0c-0.2,0-0.4-0.1-0.6-0.1c-0.1,0-0.2-0.1-0.4-0.2
		c-0.1-0.1-0.2-0.1-0.2-0.2c-0.1-0.1-0.2-0.1-0.2-0.2c-0.1-0.1-0.2-0.2-0.3-0.2C7,18.1,6.9,18,6.8,17.9C6.7,17.8,6.7,17.7,6.6,17.6z
		"/>
	<path class="st118" d="M18.9,8.3c0-0.1-0.1-0.2-0.1-0.3c0.7-0.7,1.4-1.4,2.2-2.1c0.1-0.1,0.1-0.2,0.2-0.1c0,0,0,0,0,0
		c-0.3,0.5-0.6,1-0.9,1.5c0,0-0.1,0.1-0.1,0.1c-0.3,0.2-0.6,0.6-0.9,0.9C19.1,8.2,19,8.3,18.9,8.3z"/>
	<path class="st119" d="M18.9,8.3c0.1,0,0.2-0.1,0.2-0.1c0.3-0.3,0.5-0.5,0.8-0.8c0,0,0.1-0.2,0.2-0.1c-0.2,0.3-0.4,0.7-0.7,1
		c-0.1,0.1-0.1,0.2-0.2,0.3C19.1,8.6,19,8.8,19,8.9C19,8.7,18.9,8.5,18.9,8.3z"/>
	<path class="st120" d="M8.3,18.9C8.5,18.9,8.7,19,8.9,19c-0.1,0-0.2,0-0.3,0.1c-0.4,0.3-0.9,0.6-1.3,0.9c-0.1,0-0.1,0.1-0.2,0.1
		c-0.1-0.1,0-0.2,0.1-0.3C7.6,19.6,7.9,19.2,8.3,18.9z"/>
	<path class="st121" d="M7.7,18.6c0.1,0,0.2,0.1,0.2,0.1C8,18.9,7.9,18.9,7.8,19c-0.6,0.6-1.2,1.2-1.8,1.8c-0.1,0.1-0.1,0.1-0.1,0.2
		c-0.3,0.2-0.6,0.4-0.9,0.5c0-0.2,0.1-0.3,0.3-0.4c0.8-0.8,1.6-1.6,2.4-2.4C7.6,18.7,7.7,18.7,7.7,18.6z"/>
	<path class="st118" d="M5.8,21c-0.1-0.1,0-0.2,0.1-0.2c0.6-0.6,1.2-1.2,1.8-1.9c0.1-0.1,0.2-0.1,0.2-0.2c0.1,0,0.2,0.1,0.3,0.1
		c0,0.1-0.1,0.2-0.2,0.3c-0.3,0.3-0.5,0.5-0.8,0.8c-0.1,0.1-0.1,0.1-0.1,0.2c-0.4,0.2-0.7,0.5-1.1,0.7C6,20.9,5.9,21,5.8,21z"/>
	<path class="st122" d="M17.9,11.7c0,0.2,0,0.3,0,0.5c0,0.1-0.1,0.2-0.2,0.3c-1.7,1.7-3.5,3.5-5.2,5.2c-0.1,0.1-0.2,0.2-0.3,0.2
		c-0.2,0-0.3,0-0.5,0c-0.1-0.1,0.1-0.2,0.1-0.3c0.6-0.6,1.2-1.2,1.8-1.8c0.1-0.1,0.2-0.2,0.2-0.3c0-0.1,0.1-0.1,0.1-0.1
		c0.6-0.3,1.1-0.8,1.5-1.5c0-0.1,0.1-0.1,0.1-0.1c0.1,0,0.2-0.1,0.3-0.2c0.6-0.6,1.2-1.2,1.8-1.8C17.7,11.8,17.8,11.6,17.9,11.7z"/>
	<path class="st39" d="M12.4,7.1c0.2,0,0.3,0,0.5,0c0,0.1-0.1,0.2-0.1,0.2C11,9.2,9.2,11,7.3,12.8c-0.1,0.1-0.1,0.2-0.2,0.1
		c0-0.2,0-0.3,0-0.5c0-0.1,0.1-0.2,0.2-0.3c1.6-1.6,3.3-3.3,4.9-4.9C12.3,7.2,12.3,7.1,12.4,7.1z"/>
	<path class="st123" d="M11.3,7.1c0.2,0,0.4,0,0.6,0c0.1,0.1-0.1,0.2-0.1,0.3c-0.5,0.6-1.1,1.1-1.6,1.6c-0.9,0.9-1.8,1.8-2.8,2.8
		c-0.1,0.1-0.1,0.2-0.3,0.1c0-0.2,0-0.4,0-0.6c0.2-0.3,0.5-0.5,0.8-0.8c1.1-1.1,2.2-2.2,3.3-3.3C11.2,7.2,11.3,7.1,11.3,7.1z"/>
	<path class="st101" d="M7.1,11.9c0.1,0,0.2-0.1,0.2-0.1c1.5-1.5,3-3,4.5-4.5c0.1-0.1,0.1-0.1,0.1-0.2c0.2,0,0.4,0,0.5,0
		c0,0-0.1,0.1-0.1,0.1c-1.7,1.7-3.4,3.4-5.1,5.1c0,0-0.1,0.1-0.1,0.1C7.1,12.3,7.1,12.1,7.1,11.9z"/>
	<path class="st124" d="M12.2,17.9c0,0,0.1-0.1,0.1-0.1c1.8-1.8,3.6-3.6,5.5-5.5c0,0,0.1-0.1,0.1-0.1c0,0.2,0,0.3,0,0.5
		c-0.1,0.1-0.2,0.2-0.3,0.3c-1.6,1.6-3.2,3.2-4.8,4.8c-0.1,0.1-0.1,0.1-0.2,0.2C12.5,17.9,12.4,17.9,12.2,17.9z"/>
	<path class="st125" d="M12.7,17.9c0-0.1,0.1-0.2,0.1-0.2c1.6-1.6,3.2-3.2,4.9-4.9c0.1-0.1,0.1-0.1,0.2-0.1c0,0.1,0,0.3,0,0.4
		c-0.1,0.1-0.2,0.2-0.4,0.4c-1.4,1.4-2.8,2.8-4.2,4.2c-0.1,0.1-0.1,0.1-0.2,0.2C13,17.9,12.8,17.9,12.7,17.9z"/>
	<path class="st126" d="M14.1,17.9c-0.2,0-0.3,0-0.5,0c-0.1-0.2,0.1-0.2,0.1-0.3c0.7-0.7,1.4-1.4,2.1-2.1c0.6-0.6,1.2-1.2,1.8-1.8
		c0.1-0.1,0.1-0.2,0.3-0.1c0,0.2,0,0.3,0,0.5c-0.4,0.4-0.8,0.8-1.1,1.1c-0.8,0.9-1.7,1.7-2.5,2.5C14.2,17.8,14.1,17.9,14.1,17.9z"/>
	<path class="st127" d="M17.9,13.6c-0.1,0-0.2,0.1-0.2,0.1c-1.3,1.3-2.7,2.7-4,4c-0.1,0.1-0.1,0.1-0.1,0.2c-0.1,0-0.3,0-0.4,0
		c0-0.1,0.1-0.2,0.1-0.2c1.5-1.5,2.9-2.9,4.4-4.4c0.1-0.1,0.1-0.1,0.2-0.1C17.9,13.3,17.9,13.4,17.9,13.6z"/>
	<path class="st99" d="M11.3,7.1c0,0.1-0.1,0.2-0.1,0.2c-1.3,1.3-2.6,2.6-3.9,3.9c-0.1,0.1-0.1,0.1-0.2,0.1c0-0.2,0-0.3,0-0.5
		c0.6-0.6,1.2-1.2,1.8-1.8c0.7-0.7,1.3-1.3,2-2C11,7.1,11.2,7.1,11.3,7.1z"/>
	<path class="st35" d="M14.1,17.9c0-0.1,0.1-0.2,0.1-0.2c1.2-1.2,2.3-2.3,3.5-3.5c0.1-0.1,0.1-0.1,0.2-0.1c0,0.2,0,0.4,0,0.5
		c-0.7,0.7-1.4,1.4-2.2,2.2c-0.4,0.4-0.8,0.8-1.2,1.1C14.4,17.9,14.2,17.9,14.1,17.9z"/>
	<path class="st106" d="M7.1,12.9c0,0,0.1-0.1,0.1-0.1C9.1,11,11,9.1,12.8,7.2c0,0,0.1-0.1,0.1-0.1c0.1,0,0.1,0,0.2,0
		c0,0.1-0.1,0.2-0.2,0.3c-0.6,0.6-1.2,1.2-1.9,1.9c-0.1,0.1-0.2,0.2-0.2,0.3c0,0.1-0.1,0.1-0.2,0.2c-0.5,0.3-0.8,0.7-1.1,1.1
		c0,0.1-0.1,0.2-0.2,0.3c-0.1,0-0.2,0.1-0.3,0.2c-0.6,0.6-1.2,1.2-1.8,1.8c-0.1,0.1-0.1,0.2-0.3,0.2C7.1,13.2,7.1,13.1,7.1,12.9z"/>
	<path class="st128" d="M14.6,17.9c0-0.1,0.1-0.2,0.1-0.2c1-1,2-2,3-3c0.1-0.1,0.1-0.1,0.2-0.1c0,0.2,0,0.4,0,0.5
		C17,16,16,17,15.1,17.9C15,17.9,14.8,17.9,14.6,17.9z"/>
	<path class="st43" d="M7.1,10.5c0-0.2,0-0.3,0-0.5c0.8-0.9,1.7-1.7,2.5-2.5c0.2-0.2,0.3-0.3,0.5-0.5c0.2,0,0.3,0,0.5,0
		c0,0.1-0.1,0.2-0.1,0.2c-1,1-2.1,2.1-3.1,3.1C7.3,10.5,7.2,10.6,7.1,10.5z"/>
	<path class="st129" d="M17.9,11.7c-0.1,0-0.2,0.1-0.2,0.2c-0.6,0.6-1.3,1.3-1.9,1.9c-0.1,0-0.1,0.2-0.2,0.1c-0.1-0.1,0-0.2,0-0.3
		c0.1-0.2,0.1-0.4,0.2-0.6c0.1-0.1,0.2-0.2,0.3-0.3c0.5-0.5,1-1,1.5-1.5c0.1-0.1,0.2-0.2,0.3-0.2C17.9,11.3,17.9,11.5,17.9,11.7z"/>
	<path class="st130" d="M15.1,17.9c0-0.1,0.1-0.2,0.1-0.2c0.8-0.8,1.6-1.6,2.4-2.4c0.1-0.1,0.1-0.1,0.2-0.1c0,0.2,0,0.4-0.1,0.6
		c-0.7,0.7-1.4,1.4-2.1,2.1C15.5,17.9,15.3,17.9,15.1,17.9z"/>
	<path class="st131" d="M17.7,8.9c0.1,0.1,0.1,0.3,0.1,0.4c0,0.1,0,0.2-0.1,0.3c-0.6,0.6-1.2,1.2-1.7,1.7c-0.1,0.1-0.2,0.2-0.3,0.1
		c-0.1-0.1-0.1-0.2-0.1-0.4c0.1-0.2,0.3-0.3,0.4-0.4c0.4-0.5,0.9-0.9,1.3-1.4C17.4,9.1,17.5,9,17.7,8.9z"/>
	<path class="st47" d="M8.5,17.5c-0.1,0-0.2-0.1-0.3-0.2c0-0.1,0-0.1,0.1-0.2c0.6-0.7,1.3-1.3,2-1.9c0,0,0.1,0,0.1,0
		c0.2,0,0.3,0.1,0.4,0.3c0,0.1-0.1,0.2-0.1,0.3c-0.6,0.6-1.2,1.2-1.8,1.8C8.7,17.4,8.6,17.5,8.5,17.5z"/>
	<path class="st129" d="M13.8,15.6c0.1,0.1,0,0.2-0.1,0.2c-0.6,0.6-1.2,1.2-1.8,1.8c-0.1,0.1-0.2,0.1-0.2,0.2c-0.2,0-0.4,0-0.6,0
		c-0.1-0.1,0.1-0.2,0.1-0.3c0.5-0.5,1-1,1.5-1.5c0.1-0.1,0.2-0.2,0.2-0.3C13.3,15.7,13.5,15.6,13.8,15.6z"/>
	<path class="st132" d="M17.9,9.9c0,0.1,0,0.2,0,0.3c-0.2,0.4-0.5,0.7-0.8,1c-0.4,0.4-0.7,0.8-1.1,1.2c-0.1,0.1-0.1,0.2-0.1,0.2
		c0,0.1-0.1,0.1-0.1,0c-0.1-0.3,0-0.6,0-0.9c0.3-0.2,0.5-0.5,0.8-0.7c0.4-0.4,0.8-0.8,1.2-1.2C17.7,10,17.8,9.8,17.9,9.9z"/>
	<path class="st92" d="M13,15.9c0.1,0.1,0,0.2-0.1,0.3c-0.5,0.5-1,1-1.6,1.6c-0.1,0.1-0.2,0.1-0.2,0.2c-0.3,0-0.6,0-0.9,0
		c0-0.1,0.1-0.1,0.1-0.2c0.7-0.6,1.4-1.2,2.1-1.8c0.1-0.1,0.2-0.1,0.4-0.1C12.9,15.8,12.9,15.8,13,15.9z"/>
	<path class="st121" d="M8.5,17.5c0.3-0.3,0.6-0.6,0.9-0.9c0.3-0.3,0.7-0.7,1-1c0.1-0.1,0.1-0.1,0.2-0.2c0.2,0,0.3,0.1,0.4,0.2
		c0,0.1-0.1,0.1-0.1,0.2c-0.6,0.6-1.2,1.2-1.8,1.8c-0.1,0.1-0.1,0.1-0.2,0.1C8.8,17.6,8.6,17.6,8.5,17.5z"/>
	<path class="st131" d="M8.9,17.7c0.2-0.2,0.4-0.4,0.6-0.6c0.5-0.5,1-1,1.5-1.5c0.2-0.1,0.3,0,0.4,0.1c0.1,0.1-0.1,0.2-0.1,0.3
		c-0.6,0.6-1.1,1.1-1.7,1.7c-0.1,0.1-0.1,0.2-0.3,0.2C9.2,17.8,9.1,17.8,8.9,17.7z"/>
	<path class="st133" d="M17.7,8.9c-0.3,0.3-0.6,0.7-0.9,1c-0.4,0.4-0.8,0.8-1.2,1.1c-0.1-0.1-0.2-0.2-0.2-0.4
		c0.2-0.2,0.4-0.4,0.6-0.6c0.1-0.1,0.2-0.2,0.2-0.3c0.3-0.1,0.5-0.3,0.7-0.6C17,9,17.1,8.8,17.3,8.7c0.1-0.1,0.1-0.1,0.2-0.2
		C17.6,8.6,17.6,8.8,17.7,8.9z"/>
	<path class="st134" d="M7.1,10.5C7.4,10.3,7.7,10,8,9.7C8.8,8.8,9.7,8,10.5,7.1c0.1,0,0.2,0,0.3,0c0,0.1-0.1,0.2-0.1,0.2
		c-1.1,1.1-2.3,2.3-3.4,3.4c-0.1,0.1-0.1,0.1-0.2,0.1C7.1,10.7,7.1,10.6,7.1,10.5z"/>
	<path class="st135" d="M10.1,7.1c0,0.1-0.1,0.1-0.1,0.2C9,8.2,8.2,9,7.3,9.9c-0.1,0.1-0.1,0.1-0.2,0.1c0-0.2,0-0.3,0-0.5
		c0.8-0.8,1.6-1.6,2.4-2.4C9.7,7.1,9.9,7.1,10.1,7.1z"/>
	<path class="st132" d="M12.8,15.9c-0.3,0-0.4,0.3-0.6,0.4c-0.6,0.6-1.3,1.1-1.9,1.6c-0.1,0-0.2,0-0.3,0c-0.1-0.1,0.1-0.2,0.1-0.3
		c0.5-0.5,1-1,1.5-1.5c0.1-0.1,0.2-0.3,0.3-0.3c0.2,0,0.4,0,0.6,0C12.6,15.8,12.7,15.8,12.8,15.9z"/>
	<path class="st92" d="M15.8,12.8c0-0.3,0.3-0.4,0.4-0.6c0.6-0.6,1.1-1.3,1.7-2c0,0.3,0,0.6,0,0.8c-0.1,0-0.2,0.1-0.3,0.2
		c-0.5,0.5-1.1,1.1-1.6,1.6C16,12.9,15.9,13,15.8,13C15.8,13,15.8,12.9,15.8,12.8z"/>
	<path class="st61" d="M10.3,15.1C9.9,15.6,9.4,16,9,16.4c-0.3,0.3-0.6,0.5-0.8,0.8C8.1,17.2,8,17.1,7.9,17c0-0.1,0-0.2,0.1-0.2
		c0.6-0.6,1.2-1.2,1.9-1.9c0.1-0.1,0.1-0.1,0.2-0.1C10.2,14.9,10.3,14.9,10.3,15.1z"/>
	<path class="st136" d="M11.8,15.8c0.1,0.1,0,0.2-0.1,0.2c-0.5,0.5-1.1,1.1-1.6,1.6c-0.1,0.1-0.2,0.1-0.2,0.2c0,0,0,0-0.1,0
		c-0.1,0-0.2,0-0.3,0c-0.1,0-0.2,0-0.2,0c0.2,0,0.2-0.2,0.3-0.3c0.6-0.6,1.2-1.2,1.8-1.8C11.6,15.7,11.7,15.7,11.8,15.8z"/>
	<path class="st137" d="M16.2,7.4c0.1,0,0.2,0.1,0.3,0.1c0,0.3-0.3,0.4-0.4,0.6c0.1,0,0.2,0,0.2,0.1c0,0,0,0,0,0
		c-0.5,0-0.8,0.3-0.9,0.7c-0.1,0-0.2,0.1-0.3,0.1c-0.2,0.2-0.4,0.4-0.7,0.7c-0.1,0-0.2-0.1-0.3-0.2c0-0.1,0.1-0.2,0.1-0.3
		c0.6-0.6,1.2-1.2,1.7-1.7C16,7.4,16.1,7.3,16.2,7.4z"/>
	<path class="st77" d="M7.5,16.4c-0.1-0.1-0.2-0.3-0.2-0.4c0.6-0.7,1.3-1.3,2-2c0.1-0.1,0.1-0.1,0.2-0.1c0.1,0.1,0.2,0.2,0.2,0.4
		C8.9,15,8.2,15.7,7.5,16.4z"/>
	<path class="st138" d="M16.2,7.4c-0.1,0-0.2,0-0.2,0.1c-0.6,0.6-1.2,1.2-1.8,1.8c0,0-0.1,0.1-0.1,0.2c-0.2,0.1-0.3,0-0.4-0.1
		c0-0.1,0-0.2,0.1-0.3c0.6-0.6,1.2-1.2,1.7-1.7c0.1-0.1,0.1-0.2,0.3-0.1C16,7.2,16.1,7.3,16.2,7.4z"/>
	<path class="st136" d="M17.9,9.9c-0.1,0-0.2,0.1-0.2,0.2c-0.6,0.6-1.1,1.1-1.7,1.7c-0.1,0.1-0.1,0.2-0.2,0.1
		c-0.1-0.1-0.2-0.2-0.1-0.4c0.1,0.1,0.1,0,0.2,0c0.6-0.6,1.3-1.3,1.9-1.9c0,0,0.1-0.1,0.1-0.2c0.1,0.1,0,0.2,0,0.2
		C17.9,9.7,17.9,9.8,17.9,9.9C17.9,9.9,17.9,9.9,17.9,9.9z"/>
	<path class="st139" d="M9.6,7.1c0,0.1-0.1,0.1-0.1,0.2C8.7,8,8,8.7,7.3,9.4C7.3,9.5,7.2,9.6,7.1,9.6c0-0.2,0.1-0.4,0.2-0.6
		c0.5-0.5,1.1-1.1,1.6-1.6C9.1,7.2,9.3,7.2,9.6,7.1z"/>
	<path class="st49" d="M7.1,14.4c0-0.1,0-0.3,0-0.4c0-0.1,0.1-0.2,0.2-0.3c0.5-0.5,1-1,1.5-1.5c0,0,0,0,0.1-0.1
		C8.9,12.1,9,12,9.1,12c0.1,0,0.1,0.2,0.1,0.3c0,0.1,0,0.1,0,0.2c-0.1,0.2-0.3,0.3-0.5,0.5c-0.4,0.4-0.9,0.9-1.3,1.3
		C7.3,14.3,7.2,14.5,7.1,14.4z"/>
	<path class="st49" d="M14,7.1c0.1,0,0.3,0,0.4,0c0,0.1,0,0.1-0.1,0.2c-0.6,0.6-1.2,1.3-1.9,1.8c-0.1,0-0.1,0-0.2,0
		c-0.1,0-0.2,0-0.3-0.1c0-0.1,0.1-0.2,0.1-0.3c0.5-0.5,1.1-1.1,1.6-1.6C13.8,7.2,13.9,7.1,14,7.1z"/>
	<path class="st140" d="M15.7,17.8c0-0.1,0.1-0.1,0.1-0.2c0.6-0.6,1.2-1.2,1.8-1.8c0.1-0.1,0.1-0.1,0.2-0.1
		C17.5,16.8,16.8,17.5,15.7,17.8z"/>
	<path class="st78" d="M7.7,16.8c-0.1-0.1-0.1-0.1-0.1-0.2c0-0.1,0-0.2,0.1-0.3c0.6-0.6,1.2-1.2,1.8-1.8c0.1-0.1,0.2-0.2,0.3-0.2
		c0.1,0.1,0.2,0.1,0.2,0.3c0,0.1-0.1,0.1-0.2,0.2c-0.6,0.6-1.2,1.2-1.8,1.8C7.9,16.7,7.9,16.8,7.7,16.8z"/>
	<path class="st141" d="M15.8,7.2c-0.1,0-0.1,0.1-0.2,0.1c-0.6,0.6-1.2,1.2-1.8,1.8c0,0-0.1,0.1-0.1,0.2c-0.1,0.1-0.2,0-0.3-0.1
		c-0.1-0.1,0-0.2,0-0.3c0.6-0.6,1.2-1.3,1.9-1.9c0,0,0,0,0,0C15.5,7.1,15.7,7.2,15.8,7.2z"/>
	<path class="st105" d="M14.7,7.1c0.2,0,0.4,0,0.6,0c0,0,0,0,0,0c-0.2,0.1-0.3,0.2-0.4,0.3c-0.5,0.5-1,1-1.5,1.5
		c-0.1,0.1-0.2,0.2-0.2,0.3c-0.1,0-0.2,0-0.3,0c-0.1-0.1-0.1-0.2-0.1-0.3c0-0.1,0.1-0.1,0.1-0.2c0.5-0.5,1-1,1.5-1.5
		C14.6,7.2,14.6,7.1,14.7,7.1z"/>
	<path class="st107" d="M7.1,13.3c0.7-0.7,1.4-1.4,2.1-2.1c0.1-0.1,0.1-0.2,0.2-0.1c0,0.2-0.1,0.4-0.2,0.5c-0.1,0.1-0.2,0.1-0.3,0.2
		c-0.5,0.5-1.1,1.1-1.6,1.6c-0.1,0.1-0.1,0.2-0.3,0.2C7.1,13.5,7.1,13.4,7.1,13.3z"/>
	<path class="st141" d="M7.2,15.8c-0.1-0.1-0.1-0.3-0.1-0.4c0,0,0,0,0,0c0.2-0.2,0.4-0.4,0.5-0.6c0.4-0.4,0.9-0.9,1.3-1.3
		c0.1-0.1,0.2-0.2,0.3-0.1c0,0.1,0.1,0.2,0,0.2c-0.6,0.6-1.1,1.1-1.7,1.7C7.5,15.5,7.4,15.7,7.2,15.8z"/>
	<path class="st142" d="M7.2,15.8c0-0.1,0-0.2,0.1-0.2c0.6-0.6,1.2-1.2,1.9-1.9c0,0,0.1-0.1,0.1-0.1c0.1,0,0.2,0.1,0.1,0.2
		c-0.6,0.5-1.1,1.1-1.6,1.6c-0.2,0.2-0.3,0.4-0.5,0.4C7.2,15.9,7.2,15.9,7.2,15.8z"/>
	<path class="st105" d="M7.1,15.4c-0.1-0.2,0-0.4,0-0.6c0.2-0.3,0.5-0.5,0.7-0.8c0.4-0.4,0.7-0.7,1.1-1.1c0.2-0.2,0.2-0.1,0.3,0.1
		c0,0.1,0,0.1,0,0.2c-0.1,0.2-0.3,0.3-0.5,0.5c-0.4,0.4-0.9,0.9-1.3,1.3C7.3,15.1,7.2,15.2,7.1,15.4L7.1,15.4z"/>
	<path class="st107" d="M13.3,7.1c0.1,0,0.3,0,0.4,0c0,0.1-0.1,0.2-0.2,0.3c-0.5,0.5-1.1,1.1-1.6,1.6c-0.1,0.1-0.2,0.2-0.3,0.3
		c-0.1,0.1-0.3,0.1-0.4,0.2c-0.1,0-0.1-0.1-0.1-0.1c0,0,0.1-0.1,0.1-0.1C11.9,8.4,12.6,7.7,13.3,7.1z"/>
	<path class="st79" d="M9.8,14.5c-0.7,0.6-1.4,1.4-2.1,2c0,0-0.1,0.1-0.1,0.2c-0.1-0.1-0.1-0.1-0.1-0.2c0-0.1,0.1-0.1,0.1-0.2
		c0.6-0.6,1.2-1.2,1.9-1.9c0.1-0.1,0.1-0.1,0.2-0.1C9.7,14.3,9.8,14.3,9.8,14.5z"/>
	<path class="st109" d="M9.2,12.9c0-0.1-0.1-0.1-0.2,0c-0.5,0.5-1.1,1.1-1.6,1.6c-0.1,0.1-0.2,0.2-0.3,0.2c0-0.1,0-0.2,0-0.3
		c0.1,0,0.2-0.1,0.2-0.2c0.5-0.5,1.1-1.1,1.6-1.6c0.1-0.1,0.1-0.1,0.2-0.2C9.2,12.6,9.3,12.8,9.2,12.9z"/>
	<path class="st143" d="M7.1,13.7C7.7,13,8.4,12.4,9,11.8c0.1-0.1,0.1-0.2,0.3-0.2c0,0.2,0.1,0.5-0.1,0.6c0-0.1,0-0.1,0-0.2
		c-0.1,0-0.2,0.1-0.3,0.2c-0.6,0.6-1.2,1.2-1.8,1.8C7.1,13.9,7.1,13.8,7.1,13.7z"/>
	<path class="st143" d="M11.7,9.2c0-0.1,0.1-0.2,0.2-0.2c0.6-0.6,1.2-1.2,1.8-1.9c0.1,0,0.2,0,0.3,0c-0.6,0.6-1.1,1.1-1.7,1.7
		c-0.1,0.1-0.2,0.1-0.2,0.3c0.1,0.1,0.2,0,0.2,0C12.1,9.3,11.9,9.3,11.7,9.2z"/>
	<path class="st144" d="M7.7,16.8c0.1-0.1,0.2-0.2,0.4-0.3c0.6-0.6,1.2-1.2,1.8-1.8c0.1,0,0.2,0,0.1,0.1c-0.6,0.5-1.1,1.1-1.7,1.7
		c-0.2,0.1-0.3,0.3-0.4,0.5C7.8,16.9,7.8,16.9,7.7,16.8z"/>
	<path class="st109" d="M14.7,7.1c-0.6,0.6-1.2,1.2-1.7,1.8c-0.1,0.1-0.2,0.1-0.1,0.3c-0.2,0.1-0.3,0.1-0.4,0
		c0.5-0.6,1.1-1.1,1.7-1.7c0.1-0.1,0.2-0.2,0.2-0.3C14.5,7.1,14.6,7.1,14.7,7.1z"/>
	<path class="st145" d="M8.9,7.3c0,0.1-0.1,0.2-0.1,0.2C8.4,8,8,8.4,7.6,8.8C7.5,8.9,7.4,8.9,7.3,8.9C7.6,8.2,8.2,7.6,8.9,7.3z"/>
	<path class="st55" d="M13.3,7.1c0,0.1-0.1,0.2-0.2,0.2c-0.6,0.6-1.2,1.2-1.8,1.8c0,0.1-0.2,0.1-0.1,0.2c-0.1,0.2-0.2,0.2-0.4,0.2
		c0-0.1,0.1-0.2,0.1-0.3c0.7-0.7,1.3-1.3,2-2c0.1-0.1,0.1-0.1,0.2-0.2C13.2,7.1,13.2,7.1,13.3,7.1z"/>
	<path class="st146" d="M17.5,8.5c-0.2,0.2-0.4,0.5-0.6,0.6c-0.1-0.2-0.1-0.3-0.1-0.5c0.1-0.2,0.3-0.4,0.5-0.4
		C17.4,8.3,17.4,8.4,17.5,8.5z"/>
	<path class="st147" d="M17.3,8.2c-0.2,0.1-0.3,0.3-0.5,0.4c-0.2-0.1-0.3-0.2-0.4-0.4c0.1-0.2,0.2-0.4,0.4-0.4
		C17,7.9,17.2,8,17.3,8.2z"/>
	<path class="st148" d="M16.9,7.8c-0.2,0.1-0.3,0.3-0.4,0.4c-0.1,0.1-0.2,0-0.2-0.1c-0.1-0.1-0.1,0-0.2-0.1c0.1-0.3,0.3-0.4,0.5-0.6
		C16.6,7.6,16.8,7.6,16.9,7.8z"/>
	<path class="st132" d="M17.9,9.9c-0.1-0.1,0-0.2,0-0.3C17.9,9.7,17.9,9.8,17.9,9.9z"/>
	<path class="st132" d="M9.6,17.9c0.1,0,0.2,0,0.3,0C9.8,17.9,9.7,17.9,9.6,17.9z"/>
	<path class="st117" d="M10.8,9.5c0.1-0.1,0.3-0.1,0.4-0.2c0.1,0,0.3-0.1,0.4-0.1c0.2,0,0.4-0.1,0.6-0.1c0.1,0,0.1,0,0.2,0
		c0.1,0,0.3,0,0.4,0c0.1,0,0.2,0,0.3,0.1c0.1-0.1,0.1,0,0.2,0c0.1,0.1,0.2,0.1,0.3,0.1c0.1,0.1,0.2,0.1,0.3,0.2
		c0.1,0.1,0.2,0.1,0.3,0.2c0.2,0,0.2,0.1,0.4,0.2c0.1,0.1,0.3,0.3,0.4,0.4c0.1,0.1,0.2,0.2,0.2,0.4c0.1,0.1,0.1,0.3,0.2,0.4
		c0.1,0.1,0.1,0.3,0.2,0.4c0,0.1,0.1,0.3,0.1,0.4c0.1,0.3,0.1,0.7,0,1c0,0.1,0,0.1,0,0.2c-0.1,0.3-0.2,0.5-0.2,0.8
		c-0.4,0.8-1,1.4-1.8,1.8c-0.3,0.1-0.6,0.2-0.8,0.2c-0.1,0-0.1,0-0.2,0c-0.3,0-0.7,0-1,0c-0.1,0-0.2-0.1-0.3-0.1
		c-0.2,0-0.3-0.2-0.4-0.2c-0.1-0.1-0.2-0.2-0.4-0.2c-0.1-0.1-0.2-0.2-0.3-0.3c-0.1-0.1-0.2-0.2-0.2-0.2c0,0-0.1-0.1-0.1-0.1
		c0-0.1-0.1-0.1-0.2-0.2c0-0.1-0.1-0.1-0.1-0.2c0-0.1-0.1-0.2-0.2-0.3c0-0.1-0.1-0.2-0.1-0.2c0-0.1,0-0.2-0.1-0.2
		c0-0.1-0.2-0.2-0.1-0.3c0-0.1,0-0.1,0-0.2c0-0.2,0-0.3,0-0.5c0-0.1,0-0.1,0-0.2c0.1-0.2,0-0.4,0.1-0.6c0.1-0.2,0.1-0.4,0.2-0.5
		c0.2-0.4,0.4-0.8,0.8-1.1C10.4,9.8,10.6,9.7,10.8,9.5z"/>
	<path class="st117" d="M16.2,8.1c0.1,0,0.2,0.1,0.2,0.1c0.1,0.1,0.2,0.2,0.3,0.4c0,0.2,0.1,0.3,0.1,0.5c-0.1,0.3-0.3,0.5-0.7,0.6
		c-0.1,0.1-0.2,0-0.4,0c-0.2-0.1-0.4-0.2-0.5-0.4c0-0.1-0.1-0.3,0-0.4C15.4,8.3,15.6,8.1,16.2,8.1z"/>
	<path class="st146" d="M15.8,9.7c0.1,0,0.3,0,0.4,0c0.1,0,0,0.1,0,0.1c-0.3,0.3-0.5,0.6-0.8,0.8c-0.1-0.1-0.2-0.2-0.2-0.3
		c0.1-0.2,0.3-0.4,0.5-0.6C15.6,9.7,15.7,9.7,15.8,9.7z"/>
	<path class="st149" d="M15.2,8.9c0,0.1,0.1,0.3,0.1,0.4c-0.2,0.2-0.4,0.4-0.6,0.6c-0.1-0.1-0.2-0.2-0.3-0.3
		c0.2-0.3,0.5-0.6,0.8-0.8C15.2,8.8,15.2,8.8,15.2,8.9z"/>
	<path class="st150" d="M13.4,9.2c-0.1,0-0.1,0-0.2,0c-0.1-0.1,0-0.1,0.1-0.2c0.6-0.6,1.1-1.1,1.7-1.7c0.1-0.1,0.2-0.1,0.3-0.1
		c-0.6,0.6-1.2,1.2-1.8,1.8C13.5,9,13.4,9.1,13.4,9.2z"/>
	<path class="st150" d="M9.2,13.1c0,0.1,0.1,0.2,0.1,0.3c-0.1-0.1-0.2,0-0.2,0.1c-0.6,0.6-1.1,1.1-1.7,1.7c-0.1,0.1-0.1,0.1-0.2,0.2
		c0-0.1,0-0.2,0.1-0.3C7.9,14.4,8.5,13.8,9.2,13.1C9.1,13.2,9.2,13.2,9.2,13.1z"/>
	<path class="st151" d="M14.6,11.9c0.1,0.2,0.1,0.4,0.1,0.6c0,0.1-0.1,0.1-0.1,0.2c-0.6,0.6-1.2,1.2-1.8,1.8
		c-0.1,0.1-0.3,0.2-0.5,0.1c-0.1,0-0.2,0-0.3,0c-0.1-0.1,0-0.2,0.1-0.2c0.8-0.8,1.6-1.7,2.5-2.5C14.5,11.9,14.6,11.9,14.6,11.9z"/>
	<path class="st111" d="M14.6,11.9c0,0.1-0.1,0.2-0.2,0.2c-0.8,0.8-1.5,1.5-2.3,2.3C12,14.5,12,14.6,12,14.7c-0.2,0-0.4-0.1-0.5-0.2
		c0.9-0.9,1.9-1.9,2.8-2.8c0.1-0.1,0.1-0.1,0.2-0.1C14.5,11.6,14.6,11.8,14.6,11.9z"/>
	<path class="st61" d="M11.1,14.3c-0.1,0-0.2-0.1-0.2-0.2c-0.1-0.1,0-0.2,0.1-0.2c1-1,1.9-1.9,2.9-2.9c0,0,0.1,0,0.1-0.1
		c0.1,0.1,0.2,0.2,0.2,0.3c0.1,0.1,0,0.2-0.1,0.2c-0.9,0.9-1.9,1.9-2.8,2.8C11.3,14.2,11.2,14.3,11.1,14.3z"/>
	<path class="st47" d="M11.1,14.3c0.1-0.1,0.1-0.1,0.2-0.2c0.9-0.9,1.8-1.8,2.7-2.7c0.1-0.1,0.2-0.1,0.2-0.2
		c0.1,0.1,0.2,0.3,0.2,0.4c-0.6,0.6-1.3,1.3-1.9,1.9c-0.3,0.3-0.6,0.6-0.9,0.9c-0.1,0.1-0.1,0.1-0.2,0.1
		C11.3,14.4,11.2,14.4,11.1,14.3z"/>
	<path class="st82" d="M12.6,10.3c0.2,0,0.3,0,0.5,0.1c-0.8,0.8-1.6,1.6-2.4,2.4c-0.1,0.1-0.3,0.3-0.4,0.4c-0.1-0.1-0.1-0.3-0.1-0.4
		c0-0.1,0.1-0.2,0.2-0.2c0.7-0.7,1.4-1.4,2.1-2.1C12.5,10.4,12.6,10.3,12.6,10.3z"/>
	<path class="st152" d="M10.3,13.1c0-0.2,0.2-0.2,0.2-0.3c0.8-0.8,1.6-1.6,2.4-2.4c0.1-0.1,0.1-0.1,0.2-0.1c0.1,0,0.2,0,0.2,0.1
		c0,0.1-0.1,0.1-0.2,0.2c-0.8,0.8-1.7,1.7-2.5,2.5c-0.1,0.1-0.1,0.2-0.3,0.2C10.4,13.3,10.3,13.2,10.3,13.1z"/>
	<path class="st153" d="M10.7,13.9c-0.1-0.1-0.1-0.1-0.1-0.2c-0.1-0.1,0-0.2,0.1-0.2c0.9-0.9,1.9-1.9,2.8-2.8c0,0,0.1-0.1,0.1-0.1
		c0.1,0,0.2,0.1,0.2,0.2c0,0.1-0.1,0.2-0.2,0.2c-0.8,0.8-1.5,1.5-2.3,2.3C11.1,13.5,11,13.7,10.7,13.9z"/>
	<path class="st86" d="M10.7,13.9c0.1-0.3,0.3-0.4,0.5-0.6c0.6-0.6,1.3-1.3,1.9-1.9c0.2-0.2,0.4-0.4,0.6-0.6c0,0.1,0.1,0,0.2,0.1
		c0,0.1-0.1,0.2-0.2,0.2c-0.9,0.9-1.8,1.8-2.7,2.7c-0.1,0.1-0.2,0.1-0.2,0.2C10.8,14,10.8,14,10.7,13.9z"/>
	<path class="st154" d="M13.6,10.6c-0.1,0.1-0.1,0.2-0.2,0.2c-0.9,0.9-1.7,1.7-2.6,2.6c-0.1,0.1-0.2,0.1-0.2,0.3
		c-0.1-0.1-0.1-0.2-0.2-0.3c0.1-0.1,0.2-0.1,0.2-0.2c0.8-0.8,1.7-1.7,2.5-2.5c0.1-0.1,0.1-0.1,0.2-0.2
		C13.5,10.5,13.5,10.5,13.6,10.6z"/>
	<path class="st141" d="M12.6,10.3c-0.2,0.2-0.4,0.4-0.6,0.6c-0.6,0.6-1.2,1.2-1.8,1.8c0-0.1,0-0.3,0-0.4c0-0.1,0.1-0.2,0.2-0.2
		c0.5-0.5,1-1,1.5-1.5c0.1-0.1,0.1-0.1,0.2-0.2C12.4,10.3,12.5,10.2,12.6,10.3z"/>
	<path class="st119" d="M12.3,14.7c0.2,0,0.3-0.1,0.4-0.2c0.6-0.7,1.3-1.3,2-2c0,0.2,0,0.5-0.1,0.7c-0.5,0.4-0.9,0.9-1.4,1.4
		C12.9,14.7,12.6,14.8,12.3,14.7z"/>
	<path class="st150" d="M12.2,10.3c-0.6,0.7-1.3,1.3-1.9,2c0-0.2,0-0.3,0.1-0.4c0.4-0.4,0.9-0.9,1.3-1.3c0.1-0.1,0.1-0.1,0.2-0.2
		C12,10.3,12.1,10.3,12.2,10.3z"/>
	<path class="st147" d="M14.7,9.9c0.2-0.2,0.4-0.5,0.6-0.6c0.1,0.2,0.3,0.3,0.4,0.4c-0.1,0-0.2,0-0.2,0.1c-0.1,0.2-0.3,0.3-0.5,0.5
		C15,10.2,14.8,10,14.7,9.9z"/>
	<path class="st155" d="M11.9,10.4c-0.5,0.5-0.9,0.9-1.4,1.4c0,0-0.1,0-0.1,0.1C10.6,11.1,11.1,10.6,11.9,10.4z"/>
	<path class="st156" d="M13.2,14.6c0-0.1,0-0.1,0.1-0.1c0.4-0.4,0.8-0.8,1.2-1.2c0,0,0.1-0.1,0.2-0.1C14.3,13.9,13.9,14.4,13.2,14.6
		z"/>
</g>
</svg>
