<?xml version="1.0" encoding="utf-8"?>
<!-- Generator: Adobe Illustrator 25.4.1, SVG Export Plug-In . SVG Version: 6.00 Build 0)  -->
<svg version="1.1" id="Layer_1" xmlns="http://www.w3.org/2000/svg" xmlns:xlink="http://www.w3.org/1999/xlink" x="0px" y="0px"
	 width="25px" height="25px" viewBox="0 0 25 25" style="enable-background:new 0 0 25 25;" xml:space="preserve">
<style type="text/css">
	.st0{fill:#057CB9;}
	.st1{fill:#FFFFFF;}
	.st2{fill:#5CA7CE;}
	.st3{fill:#3593C5;}
	.st4{fill:#7FB9D6;}
	.st5{fill:#A8CDE0;}
</style>
<g>
	<path class="st0" d="M24.8,11.6c0,0.6,0,1.3,0,1.9c-0.1,0.4-0.1,0.7-0.1,1.1c0,0.5-0.2,1-0.3,1.5c-0.5,1.6-1.2,3-2.3,4.2
		c-1.1,1.3-2.4,2.4-3.9,3.2c-1.2,0.6-2.4,1-3.7,1.2c-1,0.1-1.9,0.1-2.9,0.1c-0.6,0-1.1,0-1.7-0.1C8,24.2,6.1,23.4,4.5,22
		c-2-1.7-3.3-3.8-4-6.3c-0.2-0.7-0.2-1.4-0.3-2c0-0.1,0-0.1,0-0.2c0-0.6,0-1.3,0-1.9c0.1-0.4,0.1-0.7,0.1-1.1c0-0.5,0.2-1,0.3-1.5
		c0.5-1.7,1.4-3.2,2.5-4.6c1-1.2,2.2-2.1,3.6-2.9c1-0.5,2-0.9,3.1-1.1c0.5-0.1,1-0.1,1.5-0.1c0.1,0,0.1,0,0.2,0c0.6,0,1.3,0,1.9,0
		c0.4,0.1,0.8,0.1,1.2,0.1c0.5,0,1,0.2,1.5,0.3c1.7,0.5,3.2,1.4,4.6,2.5c1.2,1,2.2,2.2,2.9,3.7c0.5,1,0.9,2,1.1,3
		c0.1,0.5,0.1,1,0.2,1.5C24.8,11.4,24.8,11.5,24.8,11.6z"/>
	<path class="st1" d="M10.9,10.3c0-0.6,0-0.6,0.6-0.6c0.8,0,1.6,0,2.3,0c0.1,0.3,0,0.6,0,1c0,0.1-0.1,0.2,0.1,0.2
		c0.5-0.8,1.2-1.2,2.1-1.3c0.6-0.1,1.2,0,1.8,0.2c1,0.4,1.6,1.1,1.9,2.1c0.2,0.7,0.2,1.3,0.2,2c0,1.5,0,3,0,4.5
		c0,0.2-0.1,0.3-0.3,0.2c-0.9,0-1.8,0-2.7,0c0-0.1,0-0.2,0-0.3c0-1.4,0-2.9,0-4.3c0-0.1,0-0.2,0-0.3c0-0.5-0.1-1-0.4-1.4
		c-0.2-0.3-0.5-0.4-0.8-0.4c-0.4,0-0.7,0-1,0.2c-0.5,0.3-0.8,0.9-0.8,1.4c0,0.1,0,0.2,0,0.3c0,1.5,0,3.1,0,4.6c0,0.1,0,0.2,0,0.3
		c-0.9,0-1.8,0-2.8,0c-0.1,0-0.2-0.1-0.2-0.2c0-0.5,0-1,0-1.5c0-0.5,0-0.9,0-1.4c0-1.5,0-3.1,0-4.6C10.9,10.7,10.9,10.5,10.9,10.3z"
		/>
	<path class="st1" d="M9.2,14.1c0,1.4,0,2.8,0,4.2c0,0.2-0.1,0.3-0.3,0.2c-0.8,0-1.6,0-2.5,0c-0.2,0-0.2,0-0.2-0.2
		c0-2.8,0-5.6,0-8.4c0-0.2,0.1-0.2,0.2-0.2c0.8,0,1.7,0,2.5,0c0.2,0,0.2,0.1,0.2,0.2C9.2,11.3,9.2,12.7,9.2,14.1z"/>
	<path class="st1" d="M6.1,7c0-0.9,0.7-1.5,1.7-1.5c1,0,1.6,0.6,1.6,1.5c0,0.9-0.7,1.5-1.7,1.5C6.8,8.5,6.1,7.8,6.1,7z"/>
	<path class="st2" d="M13.8,18.5c0-1.6,0-3.2,0-4.7c0-0.1,0-0.2,0-0.4c0,1.6,0,3.2,0,4.8C13.8,18.3,13.9,18.5,13.8,18.5z"/>
	<path class="st3" d="M16.9,13.7c0.1,0.1,0,0.2,0,0.3c0,1.5,0,3,0,4.6c-0.1-0.1,0-0.2,0-0.3C16.9,16.7,16.9,15.2,16.9,13.7z"/>
	<path class="st4" d="M10.9,10.9c0,1.5,0,3.1,0,4.6c0,0,0,0,0,0c0-1,0-2,0-3C10.9,11.9,10.9,11.4,10.9,10.9
		C10.9,10.8,10.9,10.8,10.9,10.9z"/>
	<path class="st5" d="M10.9,15.5C10.9,15.5,10.9,15.5,10.9,15.5c0,0.5,0.1,0.9,0,1.4C10.9,16.4,10.9,16,10.9,15.5z"/>
	<path class="st2" d="M13.9,10.8c-0.2,0-0.1-0.1-0.1-0.1c0-0.3,0-0.7,0-1c0.1,0.2,0,0.4,0,0.6C13.9,10.4,13.8,10.6,13.9,10.8z"/>
	<path class="st5" d="M10.9,10.9C10.9,10.9,10.9,10.9,10.9,10.9c0-0.2,0-0.4,0-0.5C10.9,10.5,10.9,10.7,10.9,10.9z"/>
</g>
</svg>
