<?xml version="1.0" encoding="utf-8"?>
<!-- Generator: Adobe Illustrator 25.4.1, SVG Export Plug-In . SVG Version: 6.00 Build 0)  -->
<svg version="1.1" id="Layer_1" xmlns="http://www.w3.org/2000/svg" xmlns:xlink="http://www.w3.org/1999/xlink" x="0px" y="0px"
	 width="25px" height="25px" viewBox="0 0 25 25" style="enable-background:new 0 0 25 25;" xml:space="preserve">
<style type="text/css">
	.st0{fill:#FFFFFF;}
</style>
<g>
	<path d="M0,12.5C0,5.6,5.6,0,12.5,0C19.4,0,25,5.6,25,12.5C25,19.4,19.4,25,12.5,25C5.6,25,0,19.4,0,12.5z M5.2,7.5
		c0.1,0.1,0.1,0.2,0.2,0.2c2.1,2.1,4.2,4.2,6.3,6.3c0.3,0.3,1.3,0.3,1.6,0c2.1-2.1,4.1-4.1,6.2-6.2c0.1-0.1,0.1-0.2,0.2-0.3
		C14.9,7.5,10.1,7.5,5.2,7.5z M5.7,17.5c4.6,0,9.1,0,13.6,0c-1.4-1.4-2.7-2.7-4.2-4.2c-0.2,0.2-0.4,0.4-0.6,0.7
		c-0.6,0.9-1.5,1.2-2.5,1c-0.3,0-0.6-0.1-0.8-0.3c-0.4-0.5-0.9-0.9-1.3-1.4C8.4,14.7,7.1,16.1,5.7,17.5z M9.1,12.8
		c-1.5-1.5-3-3-4.5-4.5c0,2.9,0,5.9,0,9C6.1,15.7,7.6,14.2,9.1,12.8z M20.4,8.2c-1.5,1.5-3,3-4.5,4.5c1.5,1.5,3,3,4.5,4.5
		C20.4,14.2,20.4,11.2,20.4,8.2z"/>
	<path class="st0" d="M5.2,7.5c4.9,0,9.7,0,14.5,0c-0.1,0.1-0.2,0.2-0.2,0.3c-2.1,2.1-4.1,4.1-6.2,6.2c-0.3,0.3-1.3,0.3-1.6,0
		c-2.1-2.1-4.2-4.2-6.3-6.3C5.4,7.7,5.3,7.6,5.2,7.5z"/>
	<path class="st0" d="M5.7,17.5c1.4-1.4,2.8-2.8,4.2-4.2c0.4,0.4,0.9,0.9,1.3,1.4c0.2,0.2,0.5,0.3,0.8,0.3c1,0.1,1.9-0.1,2.5-1
		c0.2-0.3,0.4-0.5,0.6-0.7c1.4,1.4,2.8,2.8,4.2,4.2C14.8,17.5,10.2,17.5,5.7,17.5z"/>
	<path class="st0" d="M9.1,12.8c-1.4,1.4-2.9,2.9-4.5,4.5c0-3,0-6,0-9C6.1,9.7,7.6,11.3,9.1,12.8z"/>
	<path class="st0" d="M20.4,8.2c0,3,0,6,0,9c-1.5-1.5-3-3-4.5-4.5C17.4,11.2,18.9,9.7,20.4,8.2z"/>
</g>
</svg>
