<?xml version="1.0" encoding="utf-8"?>
<!-- Generator: Adobe Illustrator 25.4.1, SVG Export Plug-In . SVG Version: 6.00 Build 0)  -->
<svg version="1.1" id="Layer_1" xmlns="http://www.w3.org/2000/svg" xmlns:xlink="http://www.w3.org/1999/xlink" x="0px" y="0px"
	 width="25px" height="25px" viewBox="0 0 25 25" style="enable-background:new 0 0 25 25;" xml:space="preserve">
<style type="text/css">
	.st0{fill:#FFFFFF;}
</style>
<g>
	<path d="M12.5,25c-3.7,0-6.7-1.4-9.2-4.1c-2.4-2.6-3.4-5.7-3.2-9.3c0.2-3.4,1.6-6.2,4.1-8.4C6.8,0.8,9.9-0.2,13.4,0
		c3.3,0.2,6.1,1.6,8.4,4.1c2.4,2.6,3.4,5.7,3.2,9.3C24.7,19.4,19.5,25.1,12.5,25z M6,9.4c0,0.9,0.4,2.1,1,3.1c1,1.7,2.4,3.2,4,4.4
		c1.4,1,2.9,1.9,4.6,2c0.4,0,0.8,0,1.2-0.3c0.6-0.6,1.2-1.1,1.7-1.7c0.4-0.4,0.4-0.7-0.1-1c-0.8-0.5-1.7-1-2.5-1.4
		c-0.4-0.2-0.7-0.1-1,0.1c-0.2,0.1-0.3,0.3-0.5,0.4c-0.4,0.4-0.5,0.4-1,0.2c-1.1-0.5-2-1.4-2.8-2.3c-0.3-0.4-0.6-0.9-0.9-1.3
		c-0.1-0.2-0.1-0.4,0.1-0.6c0.2-0.2,0.4-0.4,0.6-0.6c0.2-0.2,0.3-0.5,0.2-0.7c-0.5-0.9-1-1.9-1.5-2.8c-0.2-0.4-0.6-0.4-1-0.1
		C7.6,7.2,7,7.8,6.5,8.3C6.1,8.6,6,9,6,9.4z"/>
	<path class="st0" d="M6,9.4C6,9,6.1,8.6,6.5,8.3C7,7.8,7.6,7.2,8.1,6.7c0.3-0.3,0.7-0.3,1,0.1c0.5,0.9,1,1.8,1.5,2.8
		c0.1,0.3,0,0.5-0.2,0.7c-0.2,0.2-0.4,0.4-0.6,0.6c-0.2,0.2-0.3,0.4-0.1,0.6c0.3,0.5,0.5,0.9,0.9,1.3c0.8,0.9,1.6,1.8,2.8,2.3
		c0.5,0.3,0.6,0.2,1-0.2c0.1-0.1,0.3-0.3,0.5-0.4c0.3-0.3,0.7-0.3,1-0.1c0.8,0.5,1.7,0.9,2.5,1.4c0.5,0.3,0.5,0.6,0.1,1
		c-0.6,0.6-1.2,1.1-1.7,1.7c-0.3,0.3-0.7,0.4-1.2,0.3c-1.8-0.2-3.3-1-4.6-2c-1.6-1.2-3-2.6-4-4.4C6.4,11.4,6,10.3,6,9.4z"/>
</g>
</svg>
